<svg width="150" height="200" viewBox="0 0 150 200" fill="none" xmlns="http://www.w3.org/2000/svg">
<g clip-path="url(#clip0_14_64)">
<rect x="47" y="111" width="56" height="40" fill="#007100"/>
<rect x="30" y="42" width="91" height="70" fill="#008000"/>
<rect y="47" width="28" height="105" fill="#008000"/>
<path d="M123 48H150V153H123V48Z" fill="#008000"/>
<rect x="47" y="136" width="56" height="39" fill="#A52A2A"/>
<rect x="83" y="175" width="20" height="25" fill="#008000"/>
<rect x="47" y="175" width="20" height="25" fill="#008000"/>
<rect x="52.1725" width="45.4313" height="40" fill="#008000"/>
<rect x="61.2588" y="13" width="4.54313" height="4" fill="#FF0000"/>
<rect x="83.9744" y="13" width="4.54313" height="4" fill="#FF0000"/>
<line y1="-0.5" x2="12.4097" y2="-0.5" transform="matrix(-0.915239 0.402911 -0.493818 -0.869565 74.8882 18)" stroke="black"/>
<line y1="-0.5" x2="11.4018" y2="-0.5" transform="matrix(-0.996146 -0.0877057 0.112853 -0.993612 74.8882 24)" stroke="black"/>
<path d="M97.3707 11.6766L112.37 11.5834L97.0358 24.8797L97.3707 11.6766Z" fill="#008000"/>
<path d="M52.6293 11.6766L37.6301 11.5834L52.9642 24.8797L52.6293 11.6766Z" fill="#008000"/>
<path d="M81.135 30L81.9868 32.5L82.8386 35L79.6595 34.5L81.135 30Z" fill="white"/>
<path d="M66.3698 30L65.518 32.5L64.6661 35L67.8452 34.5L66.3698 30Z" fill="white"/>
<line y1="-0.5" x2="10.9768" y2="-0.5" transform="matrix(0.931241 -0.364405 0.450633 0.892709 64.6661 36)" stroke="black"/>
<line y1="-0.5" x2="9.92775" y2="-0.5" transform="matrix(0.915239 0.402911 -0.493818 0.869565 73.7524 32)" stroke="black"/>
<line x1="56" y1="11.5" x2="70" y2="11.5" stroke="black"/>
<line x1="56.5" y1="12" x2="56.5" y2="9" stroke="black"/>
<line x1="70.5" y1="12" x2="70.5" y2="9" stroke="black"/>
<line x1="79" y1="11.5" x2="93" y2="11.5" stroke="black"/>
<line x1="79.5" y1="12" x2="79.5" y2="9" stroke="black"/>
<line x1="93.5" y1="12" x2="93.5" y2="9" stroke="black"/>
<path d="M93.988 45.0762L76.9553 75.8126L53.9742 102.397L71.0069 71.6602L93.988 45.0762Z" fill="#FFFFE0"/>
</g>
<defs>
<clipPath id="clip0_14_64">
<rect width="150" height="200" fill="white"/>
</clipPath>
</defs>
</svg>
