<svg width="100" height="200" viewBox="0 0 100 200" fill="none" xmlns="http://www.w3.org/2000/svg">
<path d="M29 41H71L61.25 130H40.25L29 41Z" fill="#98FB98"/>
<rect x="19" y="45" width="8" height="70" fill="#FFFFE0"/>
<rect x="73" y="45" width="8" height="70" fill="#FFFFE0"/>
<rect x="55" y="138" width="12" height="62" fill="#FFFFE0"/>
<rect x="35" y="138" width="12" height="62" fill="#FFFFE0"/>
<path d="M38.2857 107H63L74 147H25L38.2857 107Z" fill="#98FB98"/>
<path d="M36.647 15.8822C35.2614 7.5683 41.6727 0 50.1013 0C58.4609 0 64.8536 7.45141 63.5825 15.7138L61.4919 29.3024C60.6336 34.8815 55.8331 39 50.1883 39C44.5976 39 39.8264 34.9581 38.9073 29.4435L36.647 15.8822Z" fill="#FFFFE0"/>
<path d="M36.9497 8.05384L26.5234 7.98033L37.1824 18.4659L36.9497 8.05384Z" fill="#FFFFE0"/>
<path d="M63.154 8.05384L73.5802 7.98033L62.9212 18.4659L63.154 8.05384Z" fill="#FFFFE0"/>
<path d="M63.9586 4.04832L50.9048 4.17343L68.5269 38.0061L63.9586 4.04832Z" fill="#FDFFA0"/>
<path d="M36.8468 4.836L48.9639 3.99999L34.1952 36.9869L36.8468 4.836Z" fill="#FDFFA0"/>
<rect x="42" y="14" width="3" height="3" fill="black"/>
<rect x="55" y="14" width="3" height="3" fill="black"/>
<line x1="50.4743" y1="19.1581" x2="48.4743" y2="25.1581" stroke="black"/>
<line x1="47" y1="32.5" x2="53" y2="32.5" stroke="black"/>
<path d="M64 5C64 3.67392 62.5777 2.40215 60.0459 1.46447C57.5142 0.526784 54.0804 1.00116e-07 50.5 0C46.9196 -1.00116e-07 43.4858 0.526784 40.9541 1.46447C38.4223 2.40215 37 3.67392 37 5L50.5 5H64Z" fill="#FDFFA0"/>
<path d="M50.5 53L56 41H44L50.5 53Z" fill="#FFFFE0"/>
<line x1="52" y1="12.5" x2="61" y2="12.5" stroke="#FDFFA0"/>
<line x1="39" y1="12.5" x2="48" y2="12.5" stroke="#FDFFA0"/>
</svg>
