<svg width="100" height="200" viewBox="0 0 100 200" fill="none" xmlns="http://www.w3.org/2000/svg">
<g clip-path="url(#clip0_13_29)">
<rect x="22" y="42" width="56" height="78" fill="#008000"/>
<rect y="42" width="20" height="75" fill="#008000"/>
<rect x="80" y="42" width="20" height="75" fill="#008000"/>
<rect x="22" y="120" width="56" height="25" fill="#A52A2A"/>
<rect x="53" y="145" width="25" height="55" fill="#008000"/>
<rect x="22" y="145" width="25" height="55" fill="#008000"/>
<rect x="30" width="40" height="40" fill="#008000"/>
<rect x="38" y="13" width="4" height="4" fill="black"/>
<rect x="58" y="13" width="4" height="4" fill="#100F0F"/>
<line x1="50.2236" y1="18.4472" x2="40.2236" y2="23.4472" stroke="black"/>
<line x1="49.9502" y1="24.4975" x2="39.9502" y2="23.4975" stroke="black"/>
<path d="M69.7947 11.6766L83.0007 11.5834L69.4999 24.8797L69.7947 11.6766Z" fill="#008000"/>
<path d="M30.4022 11.6766L17.1962 11.5834L30.697 24.8797L30.4022 11.6766Z" fill="#008000"/>
<path d="M55.5 30L56.25 32.5L57 35L54.201 34.5L55.5 30Z" fill="white"/>
<path d="M42.5 30L41.75 32.5L41 35L43.799 34.5L42.5 30Z" fill="white"/>
<line x1="49.2236" y1="31.5528" x2="57.2236" y2="35.5528" stroke="black"/>
<line x1="40.7969" y1="35.5431" x2="49.7969" y2="31.5431" stroke="black"/>
<path d="M78 42V120H22L68 42H78Z" fill="#A52A2A"/>
</g>
<defs>
<clipPath id="clip0_13_29">
<rect width="100" height="200" fill="white"/>
</clipPath>
</defs>
</svg>
