<svg width="100" height="200" viewBox="0 0 100 200" fill="none" xmlns="http://www.w3.org/2000/svg">
<g clip-path="url(#clip0_30_67)">
<rect x="22" y="43" width="56" height="74" fill="#FFF9C0"/>
<rect y="45" width="20" height="75" fill="#FFF9C0"/>
<rect x="80" y="45" width="20" height="75" fill="#FFF9C0"/>
<path d="M22 117H78V145H22V117Z" fill="white"/>
<rect x="56" y="145" width="22" height="55" fill="white"/>
<rect x="22" y="145" width="22" height="55" fill="white"/>
<rect x="31" y="8" width="37" height="32" rx="16" fill="#FFF9C0"/>
<path d="M49.5 0L54.125 8.66667L56.9 4.33333L59.675 8.66667L63.375 2.16667L68 13H31L35.625 2.16667L39.325 8.66667L42.1 4.33333L44.875 8.66667L49.5 0Z" fill="#F4EB00"/>
<rect x="31" y="13" width="37" height="9" fill="#FFF9C0"/>
<rect x="40" y="20" width="4" height="4" fill="black"/>
<rect x="40" y="20" width="4" height="4" fill="black"/>
<rect x="56" y="20" width="4" height="4" fill="black"/>
<rect x="56" y="20" width="4" height="4" fill="black"/>
<path d="M46 35H52.6667L55 33" stroke="black"/>
<line x1="35.0894" y1="15.5081" x2="46.0894" y2="17.5081" stroke="black"/>
<line y1="-0.5" x2="11.1803" y2="-0.5" transform="matrix(-0.98387 0.178885 0.178885 0.98387 65 16)" stroke="black"/>
<line x1="49.5" y1="24" x2="49.5" y2="29" stroke="black"/>
<line x1="49.5" y1="57" x2="49.5" y2="64" stroke="#F2EAA2"/>
<line x1="71.5" y1="59" x2="71.5" y2="66" stroke="#F2EAA2"/>
<line x1="27.5" y1="59" x2="27.5" y2="66" stroke="#F2EAA2"/>
<line x1="49.5" y1="81" x2="49.5" y2="106" stroke="#F2EAA2"/>
<line x1="51" y1="80.5" x2="65" y2="80.5" stroke="#F2EAA2"/>
<line x1="54" y1="68.5" x2="68" y2="68.5" stroke="#F2EAA2"/>
<line x1="30" y1="68.5" x2="44" y2="68.5" stroke="#F2EAA2"/>
<line x1="51" y1="106.5" x2="65" y2="106.5" stroke="#F2EAA2"/>
<line x1="34" y1="80.5" x2="48" y2="80.5" stroke="#F2EAA2"/>
<line x1="34" y1="88.5" x2="48" y2="88.5" stroke="#F2EAA2"/>
<line x1="34" y1="97.5" x2="48" y2="97.5" stroke="#F2EAA2"/>
<line x1="34" y1="106.5" x2="48" y2="106.5" stroke="#F2EAA2"/>
<line x1="51" y1="88.5" x2="65" y2="88.5" stroke="#F2EAA2"/>
<line x1="51" y1="97.5" x2="65" y2="97.5" stroke="#F2EAA2"/>
<rect x="31" y="11" width="37" height="3" fill="#CD6F00"/>
<circle cx="49.5" cy="12.5" r="1.5" fill="#001AFF"/>
</g>
<defs>
<clipPath id="clip0_30_67">
<rect width="100" height="200" fill="white"/>
</clipPath>
</defs>
</svg>
