<svg width="100" height="200" viewBox="0 0 100 200" fill="none" xmlns="http://www.w3.org/2000/svg">
<path d="M29 49H71L61.25 130H40.25L29 49Z" fill="#340068"/>
<rect x="19" y="45" width="8" height="70" fill="#FFFFE0"/>
<rect x="73" y="45" width="8" height="70" fill="#FFFFE0"/>
<path d="M28.5918 45.5194C28.2782 43.1244 30.1426 41 32.558 41H67.442C69.8574 41 71.7218 43.1244 71.4082 45.5194V45.5194C71.1474 47.5107 69.4504 49 67.442 49H32.558C30.5496 49 28.8526 47.5107 28.5918 45.5194V45.5194Z" fill="#FFFFE0"/>
<path d="M28.5 45H71.5L71 49H29L28.5 45Z" fill="#FFFFE0"/>
<path d="M38.2857 107H63L92 200H9L38.2857 107Z" fill="#340068"/>
<path d="M37 5H64L70 37H29L37 5Z" fill="#9D9D9D"/>
<path d="M36.647 15.8822C35.2614 7.5683 41.6727 0 50.1013 0V0C58.4609 0 64.8536 7.45141 63.5825 15.7138L61.492 29.3024C60.6336 34.8815 55.8331 39 50.1883 39V39C44.5976 39 39.8264 34.9581 38.9073 29.4435L36.647 15.8822Z" fill="#FFFFE0"/>
<rect x="43" y="16" width="3" height="3" fill="black"/>
<rect x="54" y="16" width="3" height="3" fill="black"/>
<line x1="50.4743" y1="22.1581" x2="48.4743" y2="28.1581" stroke="black"/>
<path d="M47 32L50 32.5L53 32" stroke="#AD0000"/>
<path d="M60 5L34 24.5L37 5H60Z" fill="#D1D1D1"/>
<path d="M60 5L34 24.5L37 5H60Z" fill="#D1D1D1"/>
<path d="M51 5L66 16L64 5H51Z" fill="#D1D1D1"/>
<path d="M51 5L66 16L64 5H51Z" fill="#D1D1D1"/>
<path d="M64 5C64 3.67392 62.5777 2.40215 60.0459 1.46447C57.5142 0.526784 54.0804 1.00116e-07 50.5 0C46.9196 -1.00116e-07 43.4858 0.526784 40.9541 1.46447C38.4223 2.40215 37 3.67392 37 5L50.5 5H64Z" fill="#D1D1D1"/>
<path d="M39 13.5L47.5 13" stroke="#848484"/>
<path d="M60.5 13.5L52 13" stroke="#848484"/>
<path d="M50 0L53 5H47L50 0Z" fill="#E6B300"/>
<path d="M50 0L53 5H47L50 0Z" fill="#E6B300"/>
<path d="M50 0L53 5H47L50 0Z" fill="#E6B300"/>
<path d="M50 0L53 5H47L50 0Z" fill="#E6B300"/>
<path d="M50 0L53 5H47L50 0Z" fill="#E6B300"/>
<path d="M55.5 2L53 4.66667L58 6L55.5 2Z" fill="#E6B300"/>
<path d="M55.5 2L53 4.66667L58 6L55.5 2Z" fill="#E6B300"/>
<path d="M55.5 2L53 4.66667L58 6L55.5 2Z" fill="#E6B300"/>
<path d="M55.5 2L53 4.66667L58 6L55.5 2Z" fill="#E6B300"/>
<path d="M55.5 2L53 4.66667L58 6L55.5 2Z" fill="#E6B300"/>
<path d="M44.5 2L47 4.66667L42 6L44.5 2Z" fill="#E6B300"/>
<path d="M44.5 2L47 4.66667L42 6L44.5 2Z" fill="#E6B300"/>
<path d="M44.5 2L47 4.66667L42 6L44.5 2Z" fill="#E6B300"/>
<path d="M44.5 2L47 4.66667L42 6L44.5 2Z" fill="#E6B300"/>
<path d="M44.5 2L47 4.66667L42 6L44.5 2Z" fill="#E6B300"/>
<path d="M39 7L50 4.5L62 7" stroke="#E6B300"/>
<path d="M50 1.5L51 3L50 4.5L49 3L50 1.5Z" fill="#FF6060"/>
</svg>
