<svg width="100" height="200" viewBox="0 0 100 200" fill="none" xmlns="http://www.w3.org/2000/svg">
<g clip-path="url(#clip0_2_123)">
<rect x="22" y="42" width="56" height="78" fill="#40E0D0"/>
<rect y="42" width="20" height="75" fill="#40E0D0"/>
<rect x="80" y="42" width="20" height="75" fill="#40E0D0"/>
<rect x="22" y="120" width="56" height="25" fill="#A52A2A"/>
<rect x="53" y="145" width="25" height="55" fill="#40E0D0"/>
<rect x="22" y="145" width="25" height="55" fill="#40E0D0"/>
<rect x="30" y="5" width="40" height="35" rx="7" fill="#40E0D0"/>
<rect x="38" y="13" width="4" height="4" fill="#FF0000"/>
<rect x="58" y="13" width="4" height="4" fill="#FF0000"/>
<rect x="38" y="25.8879" width="24" height="6" fill="white"/>
<path d="M62 31.8879L58 26.3879L54 31.3879L50 26.3879L46 31.3879L42 26.3879L38 31.8879" stroke="black"/>
<path d="M50 0L50.866 6H49.134L50 0Z" fill="#40E0D0"/>
<path d="M67 19.1933L75.5213 10.5375V27.8492L67 19.1933Z" fill="#40E0D0"/>
<path d="M32 18.9949L23.4787 10.3391L23.4787 27.6508L32 18.9949Z" fill="#40E0D0"/>
</g>
<defs>
<clipPath id="clip0_2_123">
<rect width="100" height="200" fill="white"/>
</clipPath>
</defs>
</svg>
