<svg width="100" height="200" viewBox="0 0 100 200" fill="none" xmlns="http://www.w3.org/2000/svg">
<g clip-path="url(#clip0_30_2)">
<rect x="22" y="42" width="56" height="60" fill="#D9D9D9"/>
<rect x="25" y="102" width="50" height="14" fill="#CDCDCD"/>
<rect y="42" width="20" height="75" fill="#CDCDCD"/>
<rect x="80" y="42" width="20" height="75" fill="#CDCDCD"/>
<path d="M25 116H75V145H25V116Z" fill="#CDCDCD"/>
<rect x="55" y="145" width="20" height="55" fill="#CDCDCD"/>
<rect x="25" y="145" width="20" height="55" fill="#CDCDCD"/>
<path d="M22 116H36V155H19L22 116Z" fill="#D9D9D9"/>
<path d="M63 116H78L80 155H63V116Z" fill="#D9D9D9"/>
<path d="M41 116H58V155H41V116Z" fill="#D9D9D9"/>
<rect x="30" width="40" height="40" fill="black"/>
<rect x="27" width="9" height="40" fill="#D9D9D9"/>
<rect x="36" y="21" width="11" height="19" fill="#D9D9D9"/>
<rect x="53" y="21" width="11" height="19" fill="#D9D9D9"/>
<rect x="64" width="9" height="40" fill="#D9D9D9"/>
<rect x="29" y="11" width="11" height="42" transform="rotate(-90 29 11)" fill="#D9D9D9"/>
</g>
<defs>
<clipPath id="clip0_30_2">
<rect width="100" height="200" fill="white"/>
</clipPath>
</defs>
</svg>
