<svg width="200" height="200" viewBox="0 0 200 200" fill="none" xmlns="http://www.w3.org/2000/svg" preserveAspectRatio="none">
<g clip-path="url(#clip0_32_161)">
<path d="M32.0759 47.6393C37.9211 19.8747 62.4157 0 90.7889 0H110.355C138.891 0 163.478 20.0978 169.156 48.063L200 200H0L32.0759 47.6393Z" fill="#A53B00"/>
<path d="M32.0759 47.6393C37.9211 19.8747 62.4157 0 90.7889 0H110.355C138.891 0 163.478 20.0978 169.156 48.063L200 200H0L32.0759 47.6393Z" fill="#A53B00"/>
<path d="M32.0759 47.6393C37.9211 19.8747 62.4157 0 90.7889 0H110.355C138.891 0 163.478 20.0978 169.156 48.063L200 200H0L32.0759 47.6393Z" fill="#A53B00"/>
<path d="M67 123C67 104.775 81.7746 90 100 90V90C118.225 90 133 104.775 133 123V200H67V123Z" fill="#A53B00"/>
<path d="M67 123C67 104.775 81.7746 90 100 90V90C118.225 90 133 104.775 133 123V200H67V123Z" fill="#A53B00"/>
<path d="M67 123C67 104.775 81.7746 90 100 90V90C118.225 90 133 104.775 133 123V200H67V123Z" fill="#696969"/>
</g>
<defs>
<clipPath id="clip0_32_161">
<rect width="200" height="200" fill="white"/>
</clipPath>
</defs>
</svg>
