<svg width="99" height="129" viewBox="0 0 99 129" fill="none" xmlns="http://www.w3.org/2000/svg">
<g clip-path="url(#clip0_246_2)">
<path d="M44 16H56V118C51 120 49 120 44 118V16Z" fill="#964800"/>
<g filter="url(#filter0_f_246_2)">
<path d="M45 85H57V105C57 105 54.5919 97.4772 52 93.3333C49.7136 89.6778 45 85 45 85Z" fill="black"/>
</g>
<rect x="28" y="16" width="44" height="23" rx="8" fill="#BE7C3F"/>
<rect x="28" y="62" width="44" height="23" rx="8" fill="#BE7C3F"/>
<rect x="28" y="39" width="44" height="23" rx="8" fill="#BE7C3F"/>
<rect x="32" y="61" width="36" height="2" fill="#FFCE85"/>
<rect x="32" y="38" width="36" height="2" fill="#FFCE85"/>
<g filter="url(#filter1_f_246_2)">
<circle cx="70.0711" cy="81.0711" r="5" transform="rotate(-45.0338 70.0711 81.0711)" fill="black"/>
</g>
<g filter="url(#filter2_f_246_2)">
<circle cx="70.0711" cy="61.0711" r="5" transform="rotate(-45.0338 70.0711 61.0711)" fill="black"/>
</g>
<g filter="url(#filter3_f_246_2)">
<circle cx="70.0711" cy="38.0711" r="5" transform="rotate(-45.0338 70.0711 38.0711)" fill="black"/>
</g>
<g filter="url(#filter4_f_246_2)">
<circle cx="43.0711" cy="18.0711" r="5" transform="rotate(-45.0338 43.0711 18.0711)" fill="white"/>
</g>
<g filter="url(#filter5_f_246_2)">
<circle cx="43.0711" cy="43.0711" r="5" transform="rotate(-45.0338 43.0711 43.0711)" fill="white"/>
</g>
<g filter="url(#filter6_f_246_2)">
<circle cx="43.0711" cy="67.0711" r="5" transform="rotate(-45.0338 43.0711 67.0711)" fill="white"/>
</g>
</g>
<defs>
<filter id="filter0_f_246_2" x="25" y="65" width="52" height="60" filterUnits="userSpaceOnUse" color-interpolation-filters="sRGB">
<feFlood flood-opacity="0" result="BackgroundImageFix"/>
<feBlend mode="normal" in="SourceGraphic" in2="BackgroundImageFix" result="shape"/>
<feGaussianBlur stdDeviation="10" result="effect1_foregroundBlur_246_2"/>
</filter>
<filter id="filter1_f_246_2" x="45.071" y="56.0711" width="50" height="50" filterUnits="userSpaceOnUse" color-interpolation-filters="sRGB">
<feFlood flood-opacity="0" result="BackgroundImageFix"/>
<feBlend mode="normal" in="SourceGraphic" in2="BackgroundImageFix" result="shape"/>
<feGaussianBlur stdDeviation="10" result="effect1_foregroundBlur_246_2"/>
</filter>
<filter id="filter2_f_246_2" x="45.071" y="36.0711" width="50" height="50" filterUnits="userSpaceOnUse" color-interpolation-filters="sRGB">
<feFlood flood-opacity="0" result="BackgroundImageFix"/>
<feBlend mode="normal" in="SourceGraphic" in2="BackgroundImageFix" result="shape"/>
<feGaussianBlur stdDeviation="10" result="effect1_foregroundBlur_246_2"/>
</filter>
<filter id="filter3_f_246_2" x="45.071" y="13.0711" width="50" height="50" filterUnits="userSpaceOnUse" color-interpolation-filters="sRGB">
<feFlood flood-opacity="0" result="BackgroundImageFix"/>
<feBlend mode="normal" in="SourceGraphic" in2="BackgroundImageFix" result="shape"/>
<feGaussianBlur stdDeviation="10" result="effect1_foregroundBlur_246_2"/>
</filter>
<filter id="filter4_f_246_2" x="18.071" y="-6.92889" width="50" height="50" filterUnits="userSpaceOnUse" color-interpolation-filters="sRGB">
<feFlood flood-opacity="0" result="BackgroundImageFix"/>
<feBlend mode="normal" in="SourceGraphic" in2="BackgroundImageFix" result="shape"/>
<feGaussianBlur stdDeviation="10" result="effect1_foregroundBlur_246_2"/>
</filter>
<filter id="filter5_f_246_2" x="18.071" y="18.0711" width="50" height="50" filterUnits="userSpaceOnUse" color-interpolation-filters="sRGB">
<feFlood flood-opacity="0" result="BackgroundImageFix"/>
<feBlend mode="normal" in="SourceGraphic" in2="BackgroundImageFix" result="shape"/>
<feGaussianBlur stdDeviation="10" result="effect1_foregroundBlur_246_2"/>
</filter>
<filter id="filter6_f_246_2" x="18.071" y="42.0711" width="50" height="50" filterUnits="userSpaceOnUse" color-interpolation-filters="sRGB">
<feFlood flood-opacity="0" result="BackgroundImageFix"/>
<feBlend mode="normal" in="SourceGraphic" in2="BackgroundImageFix" result="shape"/>
<feGaussianBlur stdDeviation="10" result="effect1_foregroundBlur_246_2"/>
</filter>
<clipPath id="clip0_246_2">
<rect width="99" height="129" fill="white"/>
</clipPath>
</defs>
</svg>
