<svg width="100" height="100" viewBox="0 0 100 100" fill="none" xmlns="http://www.w3.org/2000/svg">
<path d="M25 40H75V75C75 88.8071 63.8071 100 50 100V100C36.1929 100 25 88.8071 25 75V40Z" fill="#FFFACD"/>
<line x1="54" y1="51" x2="71" y2="51" stroke="black" stroke-width="2"/>
<line x1="29" y1="51" x2="46" y2="51" stroke="black" stroke-width="2"/>
<circle cx="40" cy="58" r="4" fill="black"/>
<circle cx="60" cy="58" r="4" fill="black"/>
<line x1="50.5" y1="65" x2="50.5" y2="77" stroke="black"/>
<line x1="43" y1="85" x2="60" y2="85" stroke="black" stroke-width="2"/>
<path d="M75 40C75 36.0603 74.3534 32.1593 73.097 28.5195C71.8406 24.8797 69.9991 21.5726 67.6777 18.7868C65.3562 16.001 62.6002 13.7913 59.5671 12.2836C56.5339 10.776 53.283 10 50 10C46.717 10 43.4661 10.776 40.4329 12.2836C37.3998 13.7913 34.6438 16.001 32.3223 18.7868C30.0009 21.5726 28.1594 24.8797 26.903 28.5195C25.6466 32.1593 25 36.0603 25 40L50 40H75Z" fill="#FFFF00"/>
<rect x="43" y="27" width="14" height="4" fill="#0ED145"/>
<rect x="29" y="28" width="10" height="2" fill="#0ED145"/>
<rect x="61" y="28" width="10" height="2" fill="#0ED145"/>
<rect x="48" y="36" width="14" height="4" transform="rotate(-90 48 36)" fill="#0ED145"/>
</svg>
