<svg width="100" height="100" viewBox="0 0 100 100" fill="none" xmlns="http://www.w3.org/2000/svg">
<path d="M25 40H75V75C75 88.8071 63.8071 100 50 100V100C36.1929 100 25 88.8071 25 75V40Z" fill="#FFFACD"/>
<path d="M25 15.3333L30.5 28.6667L33 10.6667L38 22.6667L41 2.66667L45 22.6667L50 0L55 22.6667L58 2.66667L61 22.6667L66 10.6667L70 28.6667L75 15.3333V40H25V15.3333Z" fill="black"/>
<line x1="54" y1="51" x2="71" y2="51" stroke="black" stroke-width="2"/>
<line x1="29" y1="51" x2="46" y2="51" stroke="black" stroke-width="2"/>
<circle cx="40" cy="58" r="4" fill="black"/>
<circle cx="60" cy="58" r="4" fill="black"/>
<line x1="50.5" y1="65" x2="50.5" y2="77" stroke="black"/>
<line x1="43" y1="85" x2="60" y2="85" stroke="black" stroke-width="2"/>
</svg>
