<svg width="100" height="100" viewBox="0 0 100 100" fill="none" xmlns="http://www.w3.org/2000/svg">
<g clip-path="url(#clip0_106_308)">
<rect x="45" width="10" height="100" fill="#9E4511"/>
<path d="M0 17C0 17 30.16 8 50 8C69.84 8 100 17 100 17V23C100 23 69.7746 14 50 14C30.2254 14 0 23 0 23V17Z" fill="#585858"/>
<rect x="45" width="10" height="100" fill="#9E4511"/>
<path d="M0 17C0 17 30.16 8 50 8C69.84 8 100 17 100 17V23C100 23 69.7746 14 50 14C30.2254 14 0 23 0 23V17Z" fill="#585858"/>
</g>
<defs>
<clipPath id="clip0_106_308">
<rect width="100" height="100" fill="white"/>
</clipPath>
</defs>
</svg>
