<svg width="100" height="300" viewBox="0 0 100 300" fill="none" xmlns="http://www.w3.org/2000/svg">
<path d="M20 51C20 42.1634 27.1634 35 36 35H64C72.8366 35 80 42.1634 80 51V79C80 87.8366 72.8366 95 64 95H36C27.1634 95 20 87.8366 20 79V51Z" fill="#FF0000"/>
<path d="M57 44C57 44 55 46.5 54.5 49C53.1592 55.7038 70 43 70 43" stroke="black" stroke-width="3"/>
<path d="M44.0641 44.317C44.0641 44.317 46.0641 46.817 46.5641 49.317C47.9049 56.0208 31.0641 43.317 31.0641 43.317" stroke="black" stroke-width="3"/>
<circle cx="41" cy="57" r="5" fill="black"/>
<circle cx="48" cy="67" r="2" fill="black"/>
<circle cx="54" cy="67" r="2" fill="black"/>
<circle cx="60" cy="57" r="5" fill="black"/>
<path d="M40 82C40 82 51.3742 76.9908 57 79C59.1445 79.7659 63 83 63 83" stroke="black" stroke-width="2"/>
<path d="M57.2064 86.8365C57.06 86.9229 56.9429 86.9816 56.8532 87.02C56.7851 85.4607 57.1083 82.7597 57.7485 79.7993L62.1979 82.5874C62.0427 82.7384 61.8529 82.9217 61.6373 83.1271C61.0291 83.7069 60.2192 84.4599 59.4075 85.1585C58.5888 85.863 57.7928 86.4906 57.2064 86.8365Z" fill="white" stroke="black"/>
<path d="M37 6L45 35H29L37 6Z" fill="white"/>
<path d="M35.5 14.0555C35.5 14.0555 36.1949 14.4583 37 14.4583C37.8051 14.4583 38.5 14.0555 38.5 14.0555" stroke="#D3D3D3"/>
<path d="M34.5 18.8889C34.5 18.8889 36.1949 19.2917 37 19.2917C37.8051 19.2917 39.5 18.8889 39.5 18.8889" stroke="#D3D3D3"/>
<path d="M33 23.7222C33 23.7222 35.3898 24.5278 37 24.5278C38.6102 24.5278 41 23.7222 41 23.7222" stroke="#D3D3D3"/>
<path d="M31.5 29.3611C31.5 29.3611 34.6245 30.5694 37 30.5694C39.3755 30.5694 42.5 29.3611 42.5 29.3611" stroke="#D3D3D3"/>
<path d="M62 6L70 35H54L62 6Z" fill="white"/>
<path d="M60.5 14.0555C60.5 14.0555 61.1949 14.4583 62 14.4583C62.8051 14.4583 63.5 14.0555 63.5 14.0555" stroke="#D3D3D3"/>
<path d="M59.5 18.8889C59.5 18.8889 61.1949 19.2917 62 19.2917C62.8051 19.2917 64.5 18.8889 64.5 18.8889" stroke="#D3D3D3"/>
<path d="M58 23.7222C58 23.7222 60.3898 24.5278 62 24.5278C63.6102 24.5278 66 23.7222 66 23.7222" stroke="#D3D3D3"/>
<path d="M56.5 29.3611C56.5 29.3611 59.6245 30.5694 62 30.5694C64.3755 30.5694 67.5 29.3611 67.5 29.3611" stroke="#D3D3D3"/>
<rect x="17" y="96" width="66" height="100" fill="#FF0000"/>
<rect x="17" y="196" width="66" height="40" fill="#FFFF00"/>
<rect x="17" y="236" width="26" height="60" fill="#FF0000"/>
<rect x="21" y="296" width="18" height="4" fill="#FF0000"/>
<rect x="57" y="236" width="26" height="60" fill="#FF0000"/>
<rect x="61" y="296" width="18" height="4" fill="#FF0000"/>
<rect y="98" width="16" height="83" fill="#FF0000"/>
<rect y="181" width="16" height="15" fill="#8B0000"/>
<rect x="84" y="98" width="16" height="83" fill="#FF0000"/>
<rect x="84" y="181" width="16" height="15" fill="#8B0000"/>
</svg>
