<svg width="100" height="300" viewBox="0 0 100 300" fill="none" xmlns="http://www.w3.org/2000/svg">
<g clip-path="url(#clip0_106_229)">
<path d="M18 62C18 45.4315 31.4315 32 48 32H52C68.5685 32 82 45.4315 82 62V66C82 82.5685 68.5685 96 52 96H48C31.4315 96 18 82.5685 18 66V62Z" fill="#D3D3D3"/>
<rect x="17" y="96" width="66" height="140" fill="#FFFF00"/>
<rect x="17" y="236" width="26" height="60" fill="#FF0000"/>
<rect x="21" y="296" width="18" height="4" fill="#D3D3D3"/>
<rect x="57" y="236" width="26" height="60" fill="#FF0000"/>
<rect x="61" y="296" width="18" height="4" fill="#D3D3D3"/>
<rect y="98" width="17" height="98" fill="#D3D3D3"/>
<rect x="83" y="98" width="17" height="98" fill="#D3D3D3"/>
<line x1="33.5858" y1="58.8995" x2="44.8995" y2="47.5858" stroke="black" stroke-width="4"/>
<line y1="-2" x2="16" y2="-2" transform="matrix(-0.707107 -0.707107 -0.707107 0.707107 43.3137 60.4853)" stroke="black" stroke-width="4"/>
<line x1="55.5858" y1="58.8995" x2="66.8995" y2="47.5858" stroke="black" stroke-width="4"/>
<line y1="-2" x2="16" y2="-2" transform="matrix(-0.707107 -0.707107 -0.707107 0.707107 65.3137 60.4853)" stroke="black" stroke-width="4"/>
<ellipse cx="50" cy="67" rx="7" ry="5" fill="#FF0000"/>
<rect x="35" y="78" width="30" height="6" fill="#FF0000"/>
<path d="M55 5H60C60 5 59.5 11.5 60 17C60.5062 22.5685 64 34 64 34H36C36 34 37.8202 26.6593 39.5 20.5C41 15 55 5 55 5Z" fill="white"/>
<ellipse cx="58" cy="3.5" rx="5" ry="3.5" fill="#FFFF00"/>
<path d="M50 17.5C50 17.5 59 13 56 11.4292C53.7852 10.2696 52 14 52 14C52 14 52.6817 10.1202 50.5 11.4292C48 12.9293 50 17.5 50 17.5Z" fill="#FF0000"/>
<path d="M46.7574 28.3406C46.7574 28.3406 55.7574 23.8406 52.7574 22.2698C50.5426 21.1102 48.7574 24.8406 48.7574 24.8406C48.7574 24.8406 49.4391 20.9607 47.2574 22.2698C44.7574 23.7698 46.7574 28.3406 46.7574 28.3406Z" fill="#FF0000"/>
<path d="M42 16.5C42.3785 16.5243 43.2506 17.1981 43.5 17.5C43.7494 17.8019 43.7369 19.2676 43.5 20C43.16 21.0509 42.8618 21.3091 42 22C40.7717 22.9847 38.8785 24.0243 38.5 24C38.5 24 39.1559 20.7128 40 19.0639C40.6416 17.8105 41.6215 16.4757 42 16.5Z" fill="#FF0000"/>
<path d="M37 30C37 30 37.901 29.3502 38.5 29.5C39.3472 29.7118 39.3647 30.6373 39.5 31.5C39.6543 32.4836 39 34 39 34C39 34 36.3785 34.0243 36 34C36 34 36.1559 31.6489 37 30Z" fill="#FF0000"/>
<path d="M62 31.5C62.6059 31.3811 63.5 32 63.5 32L64 34C64 34 61.3785 34.0243 61 34C61 34 60.9682 31.7025 62 31.5Z" fill="#FF0000"/>
<path d="M59 16C59.5523 15.7239 60 16 60 16L60.5 20C60.5 20 59.5 18.5 59 18C58.5 17.5 58 16.5 59 16Z" fill="#FF0000"/>
</g>
<defs>
<clipPath id="clip0_106_229">
<rect width="100" height="300" fill="white"/>
</clipPath>
</defs>
</svg>
