<svg width="600" height="300" viewBox="0 0 600 300" fill="none" xmlns="http://www.w3.org/2000/svg">
<g clip-path="url(#clip0_106_419)">
<rect width="600" height="300" fill="white"/>
<rect x="150" width="300" height="100" fill="#8CFFFB"/>
<rect x="150" y="100" width="300" height="130" fill="#00A8F3"/>
<rect x="150" y="230" width="300" height="70" fill="#B97A56"/>
<path d="M396 243.166C396 243.166 404.969 237.263 410.637 237.778C415.861 238.253 423.448 244.649 423.448 244.649" stroke="#955B3B"/>
<path d="M422 276.921C422 276.921 430.9 272.304 436.57 272.777C441.795 273.213 449.448 278.404 449.448 278.404" stroke="#955B3B"/>
<path d="M381 281.947C381 281.947 385.981 278.127 389.108 278.43C391.991 278.709 396.15 282.765 396.15 282.765" stroke="#955B3B"/>
<path d="M336 260.569C336 260.569 346.547 256.406 353.315 256.926C359.553 257.406 368.753 262.34 368.753 262.34" stroke="#955B3B"/>
<path d="M150 210.804C150 210.804 160.82 198.795 171 200.246C179.127 201.403 184.5 210.804 184.5 210.804C184.5 210.804 195.921 199.062 206.5 200.246C215.209 201.22 222 210.804 222 210.804C222 210.804 229.758 199.972 239 200.246C247.831 200.507 254.5 210.804 254.5 210.804C254.5 210.804 263.786 199.293 273.5 200.246C281.853 201.065 287.5 210.804 287.5 210.804C287.5 210.804 295.252 200.066 304.5 200.246C313.472 200.42 320.5 210.804 320.5 210.804C320.5 210.804 333.237 199.232 344.5 200.246C353.943 201.095 362.5 210.804 362.5 210.804C362.5 210.804 365.736 201.756 373 200.246C382.63 198.243 393 210.804 393 210.804C393 210.804 395.54 200.922 403 200.246C411.243 199.498 416.5 210.804 416.5 210.804C416.5 210.804 428.301 198.093 438.5 200.246C445.959 201.82 450 210.804 450 210.804V230H150V210.804Z" fill="#0ED145"/>
<path d="M150 91.6916C150 91.6916 152.842 82.8334 158 81.1642C165.255 78.8164 174 91.6916 174 91.6916C174 91.6916 178.099 81.8748 184 81.1642C190.72 80.3549 197 91.6916 197 91.6916C197 91.6916 200.783 82.1853 206.5 81.1642C213.444 79.9239 220.5 91.6916 220.5 91.6916C220.5 91.6916 226.455 80.1788 233 81.1642C238.627 82.0114 242 91.6916 242 91.6916C242 91.6916 250.432 78.7687 257.5 81.1642C262.528 82.8683 265 91.6916 265 91.6916C265 91.6916 280.273 75.6176 288.5 81.1642C292.579 83.9141 294.5 91.6916 294.5 91.6916C294.5 91.6916 303.339 79.5802 311 81.1642C316.932 82.3907 321.5 91.6916 321.5 91.6916C321.5 91.6916 334.814 80.4378 345 81.1642C353.814 81.7927 364.5 91.6916 364.5 91.6916C364.5 91.6916 366.997 83.6484 371.5 81.1642C379.803 76.5836 393.5 91.6916 393.5 91.6916C393.5 91.6916 401.267 79.8154 408.5 81.1642C414.332 82.2518 418.5 91.6916 418.5 91.6916C418.5 91.6916 428.999 79.5909 437.5 81.1642C444.002 82.3674 450 91.6916 450 91.6916V110H150V91.6916Z" fill="#0ED145"/>
<rect x="150" y="110" width="300" height="20" fill="#B97A56"/>
<path d="M150 46C140.557 46 134.14 39.0251 134.14 39.0251C134.14 39.0251 117.492 42.7922 110.258 40.4728C103.024 38.1533 109.842 31.2343 109.842 31.2343C109.842 31.2343 90.7521 30.0309 89.1123 26.4773C87.4725 22.9238 104.334 19.298 104.334 19.298C104.334 19.298 91.7347 13.6873 96.4562 10.5623C101.178 7.43737 120.194 8.80146 120.194 8.80146C120.194 8.80146 119.98 1.40866 128.854 0.174525C137.728 -1.05961 150 4.65604 150 4.65604C150 4.65604 162.272 -1.05961 171.146 0.174525C180.02 1.40866 179.806 8.80146 179.806 8.80146C179.806 8.80146 198.822 7.43737 203.544 10.5623C208.265 13.6873 195.666 19.298 195.666 19.298C195.666 19.298 212.527 22.9238 210.888 26.4773C209.248 30.0309 190.158 31.2343 190.158 31.2343C190.158 31.2343 196.975 38.1533 189.742 40.4728C182.508 42.7922 165.86 39.0251 165.86 39.0251C165.86 39.0251 159.443 46 150 46Z" fill="white"/>
<path d="M450 62C440.557 62 434.14 55.0251 434.14 55.0251C434.14 55.0251 417.492 58.7922 410.258 56.4728C403.024 54.1534 409.842 47.2343 409.842 47.2343C409.842 47.2343 390.752 46.0309 389.112 42.4773C387.473 38.9238 404.334 35.298 404.334 35.298C404.334 35.298 391.735 29.6873 396.456 26.5623C401.178 23.4374 420.194 24.8015 420.194 24.8015C420.194 24.8015 419.98 17.4087 428.854 16.1745C437.728 14.9404 450 20.656 450 20.656C450 20.656 462.272 14.9404 471.146 16.1745C480.02 17.4087 479.806 24.8015 479.806 24.8015C479.806 24.8015 498.822 23.4374 503.544 26.5623C508.265 29.6873 495.666 35.298 495.666 35.298C495.666 35.298 512.527 38.9238 510.888 42.4773C509.248 46.0309 490.158 47.2343 490.158 47.2343C490.158 47.2343 496.975 54.1534 489.742 56.4728C482.508 58.7922 465.86 55.0251 465.86 55.0251C465.86 55.0251 459.443 62 450 62Z" fill="white"/>
<path d="M286.289 64.5411C286.289 64.5411 279.454 59.3287 282.54 57.1426C285.625 54.9565 293.941 54.8191 293.941 54.8191C293.941 54.8191 297.532 47.5241 304.395 46.8773C310.978 46.257 313.736 52.2727 313.736 52.2727C313.736 52.2727 324.051 51.2359 326.198 52.8319C328.345 54.4278 323.211 58.6176 323.211 58.6176C323.211 58.6176 331.491 62.2461 330.049 64.4989C328.607 66.7518 316.486 67.6565 316.486 67.6565C316.486 67.6565 316.143 71.7669 311.786 73.6226C307.43 75.4782 297.911 71.4919 297.911 71.4919C297.911 71.4919 285.869 74.5183 283.207 71.3652C280.854 68.5779 286.814 64.177 286.814 64.177L286.289 64.5411Z" fill="white"/>
<line x1="154.571" y1="97.7428" x2="157.571" y2="92.7428" stroke="#2FED65"/>
<line x1="157.61" y1="99.6877" x2="161.61" y2="94.6877" stroke="#2FED65"/>
<line x1="205.501" y1="99.9347" x2="205.774" y2="94.1101" stroke="#2FED65"/>
<line x1="209.098" y1="100.208" x2="210.252" y2="93.9099" stroke="#2FED65"/>
<line x1="228.548" y1="96.0509" x2="231.053" y2="90.7852" stroke="#2FED65"/>
<line x1="231.76" y1="97.6942" x2="235.26" y2="92.3322" stroke="#2FED65"/>
<line x1="182.538" y1="100.199" x2="184.763" y2="94.8092" stroke="#2FED65"/>
<line x1="184.571" y1="102.743" x2="187.571" y2="97.7428" stroke="#2FED65"/>
<line x1="257.545" y1="95.7254" x2="252.2" y2="98.0567" stroke="#2FED65"/>
<line x1="257.849" y1="92.4829" x2="252.218" y2="93.996" stroke="#2FED65"/>
<line x1="279.538" y1="94.1987" x2="281.763" y2="88.8092" stroke="#2FED65"/>
<line x1="281.571" y1="96.7428" x2="284.571" y2="91.7428" stroke="#2FED65"/>
<line x1="304.672" y1="98.4537" x2="309.068" y2="94.623" stroke="#2FED65"/>
<line x1="305.356" y1="101.638" x2="310.272" y2="98.5012" stroke="#2FED65"/>
<line x1="340.328" y1="95.6103" x2="344.89" y2="91.9784" stroke="#2FED65"/>
<line x1="340.871" y1="98.8215" x2="345.921" y2="95.9061" stroke="#2FED65"/>
<line x1="378.758" y1="97.803" x2="377.512" y2="92.1069" stroke="#2FED65"/>
<line x1="381.88" y1="98.7325" x2="381.491" y2="92.9145" stroke="#2FED65"/>
<line x1="404.538" y1="95.1987" x2="406.763" y2="89.8092" stroke="#2FED65"/>
<line x1="406.571" y1="97.7428" x2="409.571" y2="92.7428" stroke="#2FED65"/>
<line x1="433.538" y1="99.1987" x2="435.763" y2="93.8092" stroke="#2FED65"/>
<line x1="435.571" y1="101.743" x2="438.571" y2="96.7428" stroke="#2FED65"/>
<line x1="407.243" y1="214.364" x2="406.97" y2="220.188" stroke="#2FED65"/>
<line x1="403.646" y1="214.09" x2="402.492" y2="220.388" stroke="#2FED65"/>
<line x1="380.369" y1="209.697" x2="383.897" y2="214.34" stroke="#2FED65"/>
<line x1="377.435" y1="211.796" x2="380.592" y2="217.367" stroke="#2FED65"/>
<line x1="437.462" y1="211.801" x2="435.237" y2="217.191" stroke="#2FED65"/>
<line x1="435.429" y1="209.257" x2="432.429" y2="214.257" stroke="#2FED65"/>
<line x1="339.175" y1="209.873" x2="344.519" y2="207.542" stroke="#2FED65"/>
<line x1="338.87" y1="213.116" x2="344.501" y2="211.602" stroke="#2FED65"/>
<line x1="306.869" y1="213.605" x2="302.473" y2="217.436" stroke="#2FED65"/>
<line x1="306.184" y1="210.422" x2="301.269" y2="213.558" stroke="#2FED65"/>
<line x1="273.843" y1="214.644" x2="269.281" y2="218.276" stroke="#2FED65"/>
<line x1="273.3" y1="211.433" x2="268.25" y2="214.348" stroke="#2FED65"/>
<line x1="240.513" y1="213.717" x2="239.27" y2="219.414" stroke="#2FED65"/>
<line x1="238.064" y1="211.57" x2="235.99" y2="217.019" stroke="#2FED65"/>
<line x1="204.462" y1="215.801" x2="202.237" y2="221.191" stroke="#2FED65"/>
<line x1="202.429" y1="213.257" x2="199.429" y2="218.257" stroke="#2FED65"/>
<line x1="169.462" y1="211.801" x2="167.237" y2="217.191" stroke="#2FED65"/>
<line x1="167.429" y1="209.257" x2="164.429" y2="214.257" stroke="#2FED65"/>
<path d="M163 147.532C163 147.532 180.559 150.459 192 149.938C201.836 149.489 206.177 146.598 216 146.089C226.162 145.563 242 147.532 242 147.532" stroke="#A4E3FF"/>
<path d="M252 165.532C252 165.532 269.559 168.459 281 167.938C290.836 167.489 295.177 164.598 305 164.089C315.162 163.563 331 165.532 331 165.532" stroke="#A4E3FF"/>
<path d="M185 188.532C185 188.532 202.559 191.459 214 190.938C223.836 190.489 228.177 187.598 238 187.089C248.162 186.563 264 188.532 264 188.532" stroke="#A4E3FF"/>
<path d="M337 141.532C337 141.532 354.559 144.459 366 143.938C375.836 143.489 380.177 140.598 390 140.089C400.162 139.563 416 141.532 416 141.532" stroke="#A4E3FF"/>
<path d="M371 178.532C371 178.532 388.559 181.459 400 180.938C409.836 180.489 414.177 177.598 424 177.089C434.162 176.563 450 178.532 450 178.532" stroke="#A4E3FF"/>
<path d="M157.77 244.799C157.77 244.799 169.056 237.33 176.185 237.979C182.756 238.577 192.299 246.665 192.299 246.665" stroke="#955B3B"/>
<path d="M224.951 280.799C224.951 280.799 213.665 273.33 206.536 273.979C199.964 274.577 190.422 282.665 190.422 282.665" stroke="#955B3B"/>
<path d="M170.258 300.527C170.258 300.527 165.127 291.723 161.029 291.456C157.253 291.21 150.617 297.971 150.617 297.971" stroke="#955B3B"/>
<path d="M229 260.925C229 260.925 235.712 258.258 240.019 258.589C243.989 258.895 249.842 262.052 249.842 262.052" stroke="#955B3B"/>
<path d="M297 280.155C297 280.155 309.268 276.514 317.186 277.082C324.483 277.606 335.304 282.226 335.304 282.226" stroke="#955B3B"/>
<path d="M273 249.799C273 249.799 280.892 242.146 285.788 242.675C290.3 243.162 296.731 251.082 296.731 251.082" stroke="#955B3B"/>
<rect x="-149" width="300" height="100" fill="#8CFFFB"/>
<rect x="-149" y="100" width="300" height="130" fill="#00A8F3"/>
<rect x="-149" y="230" width="300" height="70" fill="#B97A56"/>
<path d="M97 243.166C97 243.166 105.969 237.263 111.637 237.778C116.861 238.253 124.448 244.649 124.448 244.649" stroke="#955B3B"/>
<path d="M123 276.921C123 276.921 131.9 272.304 137.57 272.777C142.795 273.213 150.448 278.404 150.448 278.404" stroke="#955B3B"/>
<path d="M82 281.947C82 281.947 86.981 278.127 90.1083 278.43C92.9908 278.709 97.1504 282.765 97.1504 282.765" stroke="#955B3B"/>
<path d="M37 260.569C37 260.569 47.5471 256.406 54.3151 256.926C60.5531 257.406 69.753 262.34 69.753 262.34" stroke="#955B3B"/>
<path d="M-149 210.804C-149 210.804 -138.18 198.795 -128 200.246C-119.873 201.403 -114.5 210.804 -114.5 210.804C-114.5 210.804 -103.079 199.062 -92.5 200.246C-83.7913 201.22 -77 210.804 -77 210.804C-77 210.804 -69.2419 199.972 -60 200.246C-51.1685 200.507 -44.5 210.804 -44.5 210.804C-44.5 210.804 -35.2139 199.293 -25.5 200.246C-17.147 201.065 -11.5 210.804 -11.5 210.804C-11.5 210.804 -3.74755 200.066 5.5 200.246C14.4716 200.42 21.5 210.804 21.5 210.804C21.5 210.804 34.2368 199.232 45.5 200.246C54.9431 201.095 63.5 210.804 63.5 210.804C63.5 210.804 66.7364 201.756 74 200.246C83.6295 198.243 94 210.804 94 210.804C94 210.804 96.5399 200.922 104 200.246C112.243 199.498 117.5 210.804 117.5 210.804C117.5 210.804 129.301 198.093 139.5 200.246C146.959 201.82 151 210.804 151 210.804V230H-149V210.804Z" fill="#0ED145"/>
<path d="M-149 91.6916C-149 91.6916 -146.158 82.8334 -141 81.1642C-133.745 78.8164 -125 91.6916 -125 91.6916C-125 91.6916 -120.901 81.8748 -115 81.1642C-108.28 80.3549 -102 91.6916 -102 91.6916C-102 91.6916 -98.2174 82.1853 -92.5 81.1642C-85.5555 79.9239 -78.5 91.6916 -78.5 91.6916C-78.5 91.6916 -72.5453 80.1788 -66 81.1642C-60.3727 82.0114 -57 91.6916 -57 91.6916C-57 91.6916 -48.5684 78.7687 -41.5 81.1642C-36.4718 82.8683 -34 91.6916 -34 91.6916C-34 91.6916 -18.7268 75.6176 -10.5 81.1642C-6.4213 83.9141 -4.5 91.6916 -4.5 91.6916C-4.5 91.6916 4.33868 79.5802 12 81.1642C17.932 82.3907 22.5 91.6916 22.5 91.6916C22.5 91.6916 35.8136 80.4378 46 81.1642C54.8142 81.7927 65.5 91.6916 65.5 91.6916C65.5 91.6916 67.9969 83.6484 72.5 81.1642C80.8034 76.5836 94.5 91.6916 94.5 91.6916C94.5 91.6916 102.267 79.8154 109.5 81.1642C115.332 82.2518 119.5 91.6916 119.5 91.6916C119.5 91.6916 129.999 79.5909 138.5 81.1642C145.002 82.3674 151 91.6916 151 91.6916V110H-149V91.6916Z" fill="#0ED145"/>
<rect x="-149" y="110" width="300" height="20" fill="#B97A56"/>
<path d="M151 4.50001C151 4.50001 158.5 46 151 46C145 46 143.5 36.5 143.5 36.5C143.5 36.5 131.455 41.4324 125.5 32.5C122.5 28 134.5 23 134.5 23C134.5 23 123.5 21.5 123.5 18C123.5 14.0863 134 12.5 134 12.5C134 12.5 127.626 4.73414 136.5 3.5C145.374 2.26586 151 4.50001 151 4.50001Z" fill="white"/>
<path d="M-12.7112 64.5411C-12.7112 64.5411 -19.546 59.3287 -16.4605 57.1426C-13.3749 54.9565 -5.05892 54.8191 -5.05892 54.8191C-5.05892 54.8191 -1.46826 47.5241 5.3955 46.8773C11.9778 46.257 14.7357 52.2727 14.7357 52.2727C14.7357 52.2727 25.051 51.2359 27.1978 52.8319C29.3446 54.4278 24.2113 58.6176 24.2113 58.6176C24.2113 58.6176 32.4913 62.2461 31.0489 64.4989C29.6066 66.7518 17.4862 67.6565 17.4862 67.6565C17.4862 67.6565 17.1429 71.7669 12.7863 73.6226C8.42975 75.4782 -1.08906 71.4919 -1.08906 71.4919C-1.08906 71.4919 -13.1305 74.5183 -15.7925 71.3652C-18.1456 68.5779 -12.1863 64.177 -12.1863 64.177L-12.7112 64.5411Z" fill="white"/>
<line x1="5.67153" y1="98.4537" x2="10.0677" y2="94.623" stroke="#2FED65"/>
<line x1="6.35638" y1="101.638" x2="11.2719" y2="98.5012" stroke="#2FED65"/>
<line x1="41.3284" y1="95.6103" x2="45.8901" y2="91.9784" stroke="#2FED65"/>
<line x1="41.8713" y1="98.8215" x2="46.9211" y2="95.9061" stroke="#2FED65"/>
<line x1="79.7582" y1="97.803" x2="78.5116" y2="92.1069" stroke="#2FED65"/>
<line x1="82.8796" y1="98.7325" x2="82.4912" y2="92.9145" stroke="#2FED65"/>
<line x1="105.538" y1="95.1987" x2="107.763" y2="89.8092" stroke="#2FED65"/>
<line x1="107.571" y1="97.7428" x2="110.571" y2="92.7428" stroke="#2FED65"/>
<line x1="134.538" y1="99.1987" x2="136.763" y2="93.8092" stroke="#2FED65"/>
<line x1="136.571" y1="101.743" x2="139.571" y2="96.7428" stroke="#2FED65"/>
<line x1="108.243" y1="214.364" x2="107.97" y2="220.188" stroke="#2FED65"/>
<line x1="104.646" y1="214.09" x2="103.492" y2="220.388" stroke="#2FED65"/>
<line x1="81.3691" y1="209.697" x2="84.8975" y2="214.34" stroke="#2FED65"/>
<line x1="78.435" y1="211.796" x2="81.592" y2="217.367" stroke="#2FED65"/>
<line x1="138.462" y1="211.801" x2="136.237" y2="217.191" stroke="#2FED65"/>
<line x1="136.429" y1="209.257" x2="133.429" y2="214.257" stroke="#2FED65"/>
<line x1="40.1746" y1="209.873" x2="45.5192" y2="207.542" stroke="#2FED65"/>
<line x1="39.8703" y1="213.116" x2="45.5015" y2="211.602" stroke="#2FED65"/>
<line x1="7.86934" y1="213.605" x2="3.47317" y2="217.436" stroke="#2FED65"/>
<line x1="7.18448" y1="210.422" x2="2.26895" y2="213.558" stroke="#2FED65"/>
<path d="M-47 165.532C-47 165.532 -29.4411 168.459 -18 167.938C-8.16448 167.489 -3.82285 164.598 6 164.089C16.1623 163.563 32 165.532 32 165.532" stroke="#A4E3FF"/>
<path d="M38 141.532C38 141.532 55.5589 144.459 67 143.938C76.8355 143.489 81.1771 140.598 91 140.089C101.162 139.563 117 141.532 117 141.532" stroke="#A4E3FF"/>
<path d="M72 178.532C72 178.532 89.5589 181.459 101 180.938C110.836 180.489 115.177 177.598 125 177.089C135.162 176.563 151 178.532 151 178.532" stroke="#A4E3FF"/>
<path d="M-2 280.155C-2 280.155 10.2683 276.514 18.1856 277.082C25.483 277.606 36.3043 282.226 36.3043 282.226" stroke="#955B3B"/>
<rect x="450" width="300" height="100" fill="#8CFFFB"/>
<rect x="450" y="100" width="300" height="130" fill="#00A8F3"/>
<rect x="450" y="230" width="300" height="70" fill="#B97A56"/>
<path d="M450 210.804C450 210.804 460.82 198.795 471 200.246C479.127 201.403 484.5 210.804 484.5 210.804C484.5 210.804 495.921 199.062 506.5 200.246C515.209 201.22 522 210.804 522 210.804C522 210.804 529.758 199.972 539 200.246C547.831 200.507 554.5 210.804 554.5 210.804C554.5 210.804 563.786 199.293 573.5 200.246C581.853 201.065 587.5 210.804 587.5 210.804C587.5 210.804 595.252 200.066 604.5 200.246C613.472 200.42 620.5 210.804 620.5 210.804C620.5 210.804 633.237 199.232 644.5 200.246C653.943 201.095 662.5 210.804 662.5 210.804C662.5 210.804 665.736 201.756 673 200.246C682.63 198.243 693 210.804 693 210.804C693 210.804 695.54 200.922 703 200.246C711.243 199.498 716.5 210.804 716.5 210.804C716.5 210.804 728.301 198.093 738.5 200.246C745.959 201.82 750 210.804 750 210.804V230H450V210.804Z" fill="#0ED145"/>
<path d="M450 91.6916C450 91.6916 452.842 82.8334 458 81.1642C465.255 78.8164 474 91.6916 474 91.6916C474 91.6916 478.099 81.8748 484 81.1642C490.72 80.3549 497 91.6916 497 91.6916C497 91.6916 500.783 82.1853 506.5 81.1642C513.444 79.9239 520.5 91.6916 520.5 91.6916C520.5 91.6916 526.455 80.1788 533 81.1642C538.627 82.0114 542 91.6916 542 91.6916C542 91.6916 550.432 78.7687 557.5 81.1642C562.528 82.8683 565 91.6916 565 91.6916C565 91.6916 580.273 75.6176 588.5 81.1642C592.579 83.9141 594.5 91.6916 594.5 91.6916C594.5 91.6916 603.339 79.5802 611 81.1642C616.932 82.3907 621.5 91.6916 621.5 91.6916C621.5 91.6916 634.814 80.4378 645 81.1642C653.814 81.7927 664.5 91.6916 664.5 91.6916C664.5 91.6916 666.997 83.6484 671.5 81.1642C679.803 76.5836 693.5 91.6916 693.5 91.6916C693.5 91.6916 701.267 79.8154 708.5 81.1642C714.332 82.2518 718.5 91.6916 718.5 91.6916C718.5 91.6916 728.999 79.5909 737.5 81.1642C744.002 82.3674 750 91.6916 750 91.6916V110H450V91.6916Z" fill="#0ED145"/>
<rect x="450" y="110" width="300" height="20" fill="#B97A56"/>
<path d="M448.333 20.3717C448.333 20.3717 440.833 61.8717 448.333 61.8717C454.333 61.8717 455.833 52.3717 455.833 52.3717C455.833 52.3717 467.878 57.3042 473.833 48.3718C476.833 43.8718 464.833 38.8717 464.833 38.8717C464.833 38.8717 475.833 37.3717 475.833 33.8717C475.833 29.9581 465.333 28.3717 465.333 28.3717C465.333 28.3717 471.707 20.6059 462.833 19.3717C453.96 18.1376 448.333 20.3717 448.333 20.3717Z" fill="white"/>
<path d="M586.289 64.5411C586.289 64.5411 579.454 59.3287 582.54 57.1426C585.625 54.9565 593.941 54.8191 593.941 54.8191C593.941 54.8191 597.532 47.5241 604.396 46.8773C610.978 46.257 613.736 52.2727 613.736 52.2727C613.736 52.2727 624.051 51.2359 626.198 52.8319C628.345 54.4278 623.211 58.6176 623.211 58.6176C623.211 58.6176 631.491 62.2461 630.049 64.4989C628.607 66.7518 616.486 67.6565 616.486 67.6565C616.486 67.6565 616.143 71.7669 611.786 73.6226C607.43 75.4782 597.911 71.4919 597.911 71.4919C597.911 71.4919 585.869 74.5183 583.207 71.3652C580.854 68.5779 586.814 64.177 586.814 64.177L586.289 64.5411Z" fill="white"/>
<line x1="454.571" y1="97.7428" x2="457.571" y2="92.7428" stroke="#2FED65"/>
<line x1="457.61" y1="99.6877" x2="461.61" y2="94.6877" stroke="#2FED65"/>
<line x1="505.501" y1="99.9347" x2="505.774" y2="94.1101" stroke="#2FED65"/>
<line x1="509.098" y1="100.208" x2="510.252" y2="93.9099" stroke="#2FED65"/>
<line x1="528.548" y1="96.0509" x2="531.053" y2="90.7852" stroke="#2FED65"/>
<line x1="531.76" y1="97.6942" x2="535.26" y2="92.3322" stroke="#2FED65"/>
<line x1="482.538" y1="100.199" x2="484.763" y2="94.8092" stroke="#2FED65"/>
<line x1="484.571" y1="102.743" x2="487.571" y2="97.7428" stroke="#2FED65"/>
<line x1="557.545" y1="95.7254" x2="552.2" y2="98.0567" stroke="#2FED65"/>
<line x1="557.849" y1="92.4829" x2="552.218" y2="93.996" stroke="#2FED65"/>
<line x1="579.538" y1="94.1987" x2="581.763" y2="88.8092" stroke="#2FED65"/>
<line x1="581.571" y1="96.7428" x2="584.571" y2="91.7428" stroke="#2FED65"/>
<line x1="573.843" y1="214.644" x2="569.281" y2="218.276" stroke="#2FED65"/>
<line x1="573.3" y1="211.433" x2="568.25" y2="214.348" stroke="#2FED65"/>
<line x1="540.513" y1="213.717" x2="539.27" y2="219.414" stroke="#2FED65"/>
<line x1="538.064" y1="211.57" x2="535.99" y2="217.019" stroke="#2FED65"/>
<line x1="504.462" y1="215.801" x2="502.237" y2="221.191" stroke="#2FED65"/>
<line x1="502.429" y1="213.257" x2="499.429" y2="218.257" stroke="#2FED65"/>
<line x1="469.462" y1="211.801" x2="467.237" y2="217.191" stroke="#2FED65"/>
<line x1="467.429" y1="209.257" x2="464.429" y2="214.257" stroke="#2FED65"/>
<path d="M463 147.532C463 147.532 480.559 150.459 492 149.938C501.836 149.489 506.177 146.598 516 146.089C526.162 145.563 542 147.532 542 147.532" stroke="#A4E3FF"/>
<path d="M552 165.532C552 165.532 569.559 168.459 581 167.938C590.836 167.489 595.177 164.598 605 164.089C615.162 163.563 631 165.532 631 165.532" stroke="#A4E3FF"/>
<path d="M485 188.532C485 188.532 502.559 191.459 514 190.938C523.836 190.489 528.177 187.598 538 187.089C548.162 186.563 564 188.532 564 188.532" stroke="#A4E3FF"/>
<path d="M457.77 244.799C457.77 244.799 469.056 237.33 476.185 237.979C482.756 238.577 492.299 246.665 492.299 246.665" stroke="#955B3B"/>
<path d="M524.951 280.799C524.951 280.799 513.665 273.33 506.536 273.979C499.964 274.577 490.422 282.665 490.422 282.665" stroke="#955B3B"/>
<path d="M470.258 300.527C470.258 300.527 465.127 291.723 461.029 291.456C457.253 291.21 450.617 297.971 450.617 297.971" stroke="#955B3B"/>
<path d="M529 260.925C529 260.925 535.712 258.258 540.019 258.589C543.989 258.895 549.842 262.052 549.842 262.052" stroke="#955B3B"/>
<path d="M597 280.155C597 280.155 609.268 276.514 617.186 277.082C624.483 277.606 635.304 282.226 635.304 282.226" stroke="#955B3B"/>
<path d="M573 249.799C573 249.799 580.892 242.146 585.788 242.675C590.3 243.162 596.731 251.082 596.731 251.082" stroke="#955B3B"/>
</g>
<defs>
<clipPath id="clip0_106_419">
<rect width="600" height="300" fill="white"/>
</clipPath>
</defs>
</svg>
