<svg width="100" height="150" viewBox="0 0 100 150" fill="none" xmlns="http://www.w3.org/2000/svg">
<g clip-path="url(#clip0_105_91)">
<path d="M23.3333 12H76.6667V28C76.6667 39.0457 67.7124 48 56.6667 48H43.3333C32.2876 48 23.3333 39.0457 23.3333 28V12Z" fill="#FFFACD"/>
<line x1="56" y1="20" x2="62.6667" y2="20" stroke="black" stroke-width="2"/>
<line x1="37.3333" y1="20" x2="44" y2="20" stroke="black" stroke-width="2"/>
<ellipse cx="40.6667" cy="24.6" rx="4" ry="2.4" fill="black"/>
<ellipse cx="59.3333" cy="24.6" rx="4" ry="2.4" fill="black"/>
<path d="M36.6667 36.0008C36.6667 36.0008 44.8401 32.9426 50.3333 33.0008C55.574 33.0563 63.3333 36.0008 63.3333 36.0008V40.8008C63.3333 40.8008 55.2652 39.0008 50 39.0008C44.7347 39.0008 36.6667 40.8008 36.6667 40.8008V36.0008Z" fill="black"/>
<rect x="23.3333" width="53.3333" height="12" fill="black"/>
<rect x="25" y="114" width="50" height="15" fill="black"/>
<rect x="25" y="129" width="21.875" height="18" fill="black"/>
<rect x="25" y="147" width="21.875" height="3" fill="white"/>
<rect x="53.125" y="129" width="21.875" height="18" fill="black"/>
<rect x="53.125" y="147" width="21.875" height="3" fill="white"/>
<path d="M13.3333 48H86.6667V94C86.6667 105.046 77.7124 114 66.6667 114H33.3333C22.2877 114 13.3333 105.046 13.3333 94V48Z" fill="black"/>
<path d="M86.6667 49.2C86.6667 49.2 97.8695 50.0079 98.3333 54.6C100 71.1 100 97.2 100 97.2H86.6667V49.2Z" fill="#FFFF00"/>
<path d="M86.6667 102.2C86.6667 99.4386 88.9052 97.2 91.6667 97.2H95C97.7614 97.2 100 99.4386 100 102.2V104.2C100 106.961 97.7614 109.2 95 109.2H91.6667C88.9052 109.2 86.6667 106.961 86.6667 104.2V102.2Z" fill="#FFFACD"/>
<path d="M13.3333 49.2C13.3333 49.2 2.13052 50.0079 1.66668 54.6C1.09673e-05 71.1 1.09673e-05 97.2 1.09673e-05 97.2H13.3333V49.2Z" fill="#FFFF00"/>
<path d="M13.3333 102.2C13.3333 99.4386 11.0948 97.2 8.33334 97.2H5.00001C2.23858 97.2 1.09673e-05 99.4386 1.09673e-05 102.2V104.2C1.09673e-05 106.961 2.23859 109.2 5.00001 109.2H8.33335C11.0948 109.2 13.3333 106.961 13.3333 104.2V102.2Z" fill="#FFFACD"/>
</g>
<defs>
<clipPath id="clip0_105_91">
<rect width="100" height="150" fill="white"/>
</clipPath>
</defs>
</svg>
