<svg width="300" height="300" viewBox="0 0 300 300" fill="none" xmlns="http://www.w3.org/2000/svg">
<g clip-path="url(#clip0_106_328)">
<rect width="300" height="300" fill="white"/>
<rect width="300" height="230" fill="#585858"/>
<rect y="230" width="300" height="70" fill="#C3C3C3"/>
<rect width="30" height="300" fill="#FFFF00"/>
<rect x="270" width="30" height="300" fill="#FFFF00"/>
<rect x="30" width="240" height="100" fill="black"/>
<rect x="37" y="7" width="226" height="86" stroke="#FF0000" stroke-width="4"/>
<path d="M91.8437 41.504H91.6997L80.1797 63.824H71.1077L59.5877 41.504H59.4437V77H49.8677V24.44H59.9477L75.5717 55.4H75.7157L91.3397 24.44H101.708V77H91.8437V41.504ZM123.159 32.576V45.464H144.255V53.168H123.159V68.864H145.695V77H113.079V24.44H145.695V32.576H123.159ZM181.394 31.712C175.49 31.712 170.882 33.416 167.57 36.824C164.258 40.232 162.602 44.864 162.602 50.72C162.602 56.576 164.33 61.208 167.786 64.616C171.29 68.024 175.994 69.728 181.898 69.728C184.874 69.728 187.514 69.248 189.818 68.288V53.168H175.202V45.464H199.394V73.904C193.73 76.448 187.586 77.72 180.962 77.72C172.274 77.72 165.338 75.296 160.154 70.448C154.97 65.552 152.378 58.976 152.378 50.72C152.378 42.416 154.874 35.84 159.866 30.992C164.858 26.144 171.722 23.72 180.458 23.72C186.89 23.72 192.53 25.256 197.378 28.328L194.354 35.6C190.034 33.008 185.714 31.712 181.394 31.712ZM206.44 77L224.656 24.44H235.456L253.744 77H242.944L239.2 64.328H220.696L216.88 77H206.44ZM222.928 56.624H236.896L229.984 33.296H229.84L222.928 56.624Z" fill="#FFFF00"/>
<rect x="35" y="160" width="80" height="120" fill="black"/>
<rect x="38" y="164" width="74" height="56" fill="#585858"/>
<rect x="38.8288" y="195.453" width="20" height="10" transform="rotate(-28.8857 38.8288 195.453)" fill="#FF00F5"/>
<rect x="70" y="189.661" width="20" height="10" transform="rotate(-28.8857 70 189.661)" fill="#FF00F5"/>
<rect x="62.5319" y="188.375" width="20" height="10" transform="rotate(12.5458 62.5319 188.375)" fill="#00FFFF"/>
<rect x="82" y="192.997" width="20" height="10" transform="rotate(-20.4785 82 192.997)" fill="#00FFFF"/>
<rect x="52.1722" y="176" width="20" height="10" transform="rotate(12.5458 52.1722 176)" fill="#05FF00"/>
<rect x="70" y="182.815" width="20" height="10" transform="rotate(-26.1506 70 182.815)" fill="#00FFFF"/>
<rect x="38" y="197.031" width="20" height="10" transform="rotate(-72.0953 38 197.031)" fill="#00FFFF"/>
<rect x="90.1722" y="180" width="20" height="10" transform="rotate(12.5458 90.1722 180)" fill="#05FF00"/>
<rect x="39" y="195" width="72" height="24" fill="#FFFF00" stroke="#FF0000" stroke-width="2"/>
<path d="M57.2031 212.828V211.688C57.2031 211.583 57.151 211.531 57.0469 211.531H54.6719C54.5156 211.531 54.3802 211.474 54.2656 211.359C54.151 211.245 54.0938 211.109 54.0938 210.953C54.0938 210.786 54.151 210.646 54.2656 210.531C54.3802 210.417 54.5156 210.359 54.6719 210.359H57.0469C57.151 210.359 57.2031 210.307 57.2031 210.203V209.469C57.2031 209.365 57.151 209.312 57.0469 209.312H54.6719C54.5156 209.312 54.3802 209.255 54.2656 209.141C54.151 209.026 54.0938 208.885 54.0938 208.719C54.0938 208.552 54.151 208.411 54.2656 208.297C54.3802 208.182 54.5156 208.125 54.6719 208.125H56.5C56.5417 208.125 56.5677 208.109 56.5781 208.078C56.599 208.047 56.599 208.021 56.5781 208L53.625 203.344C53.5417 203.208 53.5 203.073 53.5 202.938C53.5 202.823 53.5365 202.703 53.6094 202.578C53.7448 202.318 53.9635 202.188 54.2656 202.188H54.3125C54.7292 202.188 55.1146 202.297 55.4688 202.516C55.8229 202.734 56.0938 203.031 56.2812 203.406L57.125 205.078C57.5208 205.88 57.9271 206.698 58.3438 207.531C58.3542 207.552 58.3698 207.562 58.3906 207.562C58.4219 207.562 58.4427 207.552 58.4531 207.531C58.6719 207.135 59.0781 206.318 59.6719 205.078L60.5 203.406C60.6875 203.031 60.9583 202.734 61.3125 202.516C61.6667 202.297 62.0521 202.188 62.4688 202.188C62.7604 202.188 62.9792 202.318 63.125 202.578C63.1875 202.703 63.2188 202.823 63.2188 202.938C63.2188 203.073 63.1771 203.208 63.0938 203.344L60.1406 208C60.1198 208.021 60.1146 208.047 60.125 208.078C60.1458 208.109 60.1771 208.125 60.2188 208.125H62.0625C62.2188 208.125 62.3542 208.182 62.4688 208.297C62.5833 208.411 62.6406 208.552 62.6406 208.719C62.6406 208.885 62.5833 209.026 62.4688 209.141C62.3542 209.255 62.2188 209.312 62.0625 209.312H59.7031C59.599 209.312 59.5469 209.365 59.5469 209.469V210.203C59.5469 210.307 59.599 210.359 59.7031 210.359H62.0625C62.2188 210.359 62.3542 210.417 62.4688 210.531C62.5833 210.646 62.6406 210.786 62.6406 210.953C62.6406 211.109 62.5833 211.245 62.4688 211.359C62.3542 211.474 62.2188 211.531 62.0625 211.531H59.7031C59.599 211.531 59.5469 211.583 59.5469 211.688V212.828C59.5469 213.151 59.4323 213.427 59.2031 213.656C58.974 213.885 58.6979 214 58.375 214C58.0521 214 57.776 213.885 57.5469 213.656C57.3177 213.427 57.2031 213.151 57.2031 212.828ZM77.6641 203.746C77.6641 203.382 77.7812 203.076 78.0156 202.828C78.263 202.568 78.569 202.438 78.9336 202.438H89.5977C89.9622 202.438 90.2747 202.561 90.5352 202.809C90.7826 203.069 90.9062 203.382 90.9062 203.746C90.9062 203.98 90.8542 204.195 90.75 204.391L85.125 213.844C84.6562 214.482 84.0638 214.618 83.3477 214.254C83.0482 214.085 82.8398 213.824 82.7227 213.473C82.6185 213.121 82.6641 212.796 82.8594 212.496L87.293 205.055H80.75C80.4375 205.068 80.2812 205.23 80.2812 205.543V207.73C80.2031 208.512 79.7734 208.935 78.9922 209C78.6406 209 78.3281 208.883 78.0547 208.648C77.7943 208.401 77.6641 208.095 77.6641 207.73V203.746ZM93.3672 212.613C93.3672 212.249 93.4974 211.943 93.7578 211.695C94.0052 211.435 94.3112 211.305 94.6758 211.305H102.684C102.931 211.292 103.133 211.233 103.289 211.129C103.458 211.025 103.582 210.908 103.66 210.777C103.738 210.647 103.777 210.51 103.777 210.367C103.777 210.224 103.738 210.087 103.66 209.957C103.582 209.827 103.458 209.71 103.289 209.605C103.133 209.501 102.931 209.443 102.684 209.43H97.1367C96.2253 209.404 95.4701 209.195 94.8711 208.805C94.2852 208.401 93.862 207.945 93.6016 207.438C93.3542 206.917 93.2305 206.389 93.2305 205.855V204.508C93.2435 203.844 93.4388 203.336 93.8164 202.984C94.207 202.62 94.7669 202.438 95.4961 202.438H105.066C105.431 202.438 105.737 202.568 105.984 202.828C106.245 203.076 106.375 203.382 106.375 203.746C106.375 204.111 106.245 204.417 105.984 204.664C105.737 204.924 105.431 205.055 105.066 205.055H96.5508C96.3034 205.042 96.1341 205.081 96.043 205.172C95.9648 205.263 95.9258 205.393 95.9258 205.562V205.855C95.9258 205.947 95.9648 206.077 96.043 206.246C96.1211 206.402 96.2383 206.533 96.3945 206.637C96.5638 206.741 96.7721 206.799 97.0195 206.812H102.566C103.478 206.826 104.227 207.034 104.812 207.438C105.411 207.828 105.835 208.284 106.082 208.805C106.342 209.312 106.473 209.833 106.473 210.367C106.473 210.875 106.342 211.389 106.082 211.91C105.822 212.418 105.398 212.874 104.812 213.277C104.227 213.668 103.478 213.876 102.566 213.902H102.449C102.371 213.915 102.293 213.922 102.215 213.922H94.6758C94.3112 213.922 93.9987 213.798 93.7383 213.551C93.4909 213.29 93.3672 212.978 93.3672 212.613Z" fill="#FF0000"/>
<rect x="38" y="224" width="74" height="54" fill="#585858"/>
<rect width="20" height="10" transform="matrix(-0.875585 -0.483063 -0.483063 0.875585 108.406 254.453)" fill="#FF00F5"/>
<rect width="20" height="10" transform="matrix(-0.875585 -0.483063 -0.483063 0.875585 77.2346 248.661)" fill="#FF00F5"/>
<rect width="20" height="10" transform="matrix(-0.976123 0.217219 0.217219 0.976123 84.7027 247.375)" fill="#00FFFF"/>
<rect width="20" height="10" transform="matrix(-0.936804 -0.349856 -0.349856 0.936804 65.2346 251.997)" fill="#00FFFF"/>
<rect width="20" height="10" transform="matrix(-0.976123 0.217219 0.217219 0.976123 95.0624 235)" fill="#05FF00"/>
<rect width="20" height="10" transform="matrix(-0.897639 -0.440732 -0.440732 0.897639 77.2346 241.815)" fill="#00FFFF"/>
<rect width="20" height="10" transform="matrix(-0.307435 -0.951569 -0.951569 0.307435 109.235 256.031)" fill="#00FFFF"/>
<rect x="39" y="253" width="72" height="24" fill="#FFFF00" stroke="#FF0000" stroke-width="2"/>
<path d="M51.8906 270.828V269.688C51.8906 269.583 51.8386 269.531 51.7344 269.531H49.3594C49.2031 269.531 49.0677 269.474 48.9531 269.359C48.8386 269.245 48.7813 269.109 48.7813 268.953C48.7813 268.786 48.8386 268.646 48.9531 268.531C49.0677 268.417 49.2031 268.359 49.3594 268.359H51.7344C51.8386 268.359 51.8906 268.307 51.8906 268.203V267.469C51.8906 267.365 51.8386 267.312 51.7344 267.312H49.3594C49.2031 267.312 49.0677 267.255 48.9531 267.141C48.8386 267.026 48.7813 266.885 48.7813 266.719C48.7813 266.552 48.8386 266.411 48.9531 266.297C49.0677 266.182 49.2031 266.125 49.3594 266.125H51.1875C51.2292 266.125 51.2552 266.109 51.2656 266.078C51.2865 266.047 51.2865 266.021 51.2656 266L48.3125 261.344C48.2292 261.208 48.1875 261.073 48.1875 260.938C48.1875 260.823 48.224 260.703 48.2969 260.578C48.4323 260.318 48.6511 260.188 48.9531 260.188H49C49.4167 260.188 49.8021 260.297 50.1563 260.516C50.5104 260.734 50.7813 261.031 50.9688 261.406L51.8125 263.078C52.2083 263.88 52.6146 264.698 53.0313 265.531C53.0417 265.552 53.0573 265.562 53.0781 265.562C53.1094 265.562 53.1302 265.552 53.1406 265.531C53.3594 265.135 53.7656 264.318 54.3594 263.078L55.1875 261.406C55.375 261.031 55.6458 260.734 56 260.516C56.3542 260.297 56.7396 260.188 57.1563 260.188C57.4479 260.188 57.6667 260.318 57.8125 260.578C57.875 260.703 57.9063 260.823 57.9063 260.938C57.9063 261.073 57.8646 261.208 57.7813 261.344L54.8281 266C54.8073 266.021 54.8021 266.047 54.8125 266.078C54.8333 266.109 54.8646 266.125 54.9063 266.125H56.75C56.9063 266.125 57.0417 266.182 57.1563 266.297C57.2708 266.411 57.3281 266.552 57.3281 266.719C57.3281 266.885 57.2708 267.026 57.1563 267.141C57.0417 267.255 56.9063 267.312 56.75 267.312H54.3906C54.2865 267.312 54.2344 267.365 54.2344 267.469V268.203C54.2344 268.307 54.2865 268.359 54.3906 268.359H56.75C56.9063 268.359 57.0417 268.417 57.1563 268.531C57.2708 268.646 57.3281 268.786 57.3281 268.953C57.3281 269.109 57.2708 269.245 57.1563 269.359C57.0417 269.474 56.9063 269.531 56.75 269.531H54.3906C54.2865 269.531 54.2344 269.583 54.2344 269.688V270.828C54.2344 271.151 54.1198 271.427 53.8906 271.656C53.6615 271.885 53.3854 272 53.0625 272C52.7396 272 52.4636 271.885 52.2344 271.656C52.0052 271.427 51.8906 271.151 51.8906 270.828ZM62.4297 270.613C62.4297 270.249 62.5599 269.943 62.8203 269.695C63.0677 269.435 63.3737 269.305 63.7383 269.305H71.6289C71.8763 269.292 72.0781 269.233 72.2344 269.129C72.4037 269.025 72.5274 268.908 72.6055 268.777C72.6836 268.647 72.7227 268.51 72.7227 268.367C72.7227 268.224 72.6836 268.087 72.6055 267.957C72.5274 267.827 72.4037 267.71 72.2344 267.605C72.0781 267.501 71.8763 267.443 71.6289 267.43H63.7774C63.4128 267.43 63.1068 267.299 62.8594 267.039C62.599 266.792 62.4688 266.486 62.4688 266.121C62.4688 265.757 62.5925 265.451 62.8399 265.203C63.1003 264.943 63.4128 264.812 63.7774 264.812H71.5117C71.5248 264.812 71.5378 264.812 71.5508 264.812C71.7982 264.799 72 264.747 72.1563 264.656C72.3255 264.552 72.4492 264.435 72.5274 264.305C72.6055 264.174 72.6445 264.038 72.6445 263.895C72.6445 263.764 72.6055 263.634 72.5274 263.504C72.4492 263.374 72.3255 263.263 72.1563 263.172C72 263.068 71.7982 263.009 71.5508 262.996H63.6992C63.3347 262.996 63.0287 262.866 62.7813 262.605C62.5208 262.371 62.3906 262.072 62.3906 261.707C62.3906 261.355 62.5143 261.056 62.7617 260.809C63.0222 260.561 63.3347 260.438 63.6992 260.438H71.4336C72.3451 260.451 73.0938 260.652 73.6797 261.043C74.2787 261.421 74.7018 261.863 74.9492 262.371C75.2097 262.879 75.3399 263.387 75.3399 263.895C75.3399 264.402 75.2097 264.904 74.9492 265.398C74.832 265.633 74.6823 265.848 74.5 266.043C74.7214 266.277 74.9037 266.525 75.0469 266.785C75.2943 267.306 75.418 267.833 75.418 268.367C75.418 268.875 75.2878 269.389 75.0274 269.91C74.7669 270.418 74.3438 270.874 73.7578 271.277C73.1719 271.668 72.4232 271.876 71.5117 271.902H71.3945C71.3164 271.915 71.2383 271.922 71.1602 271.922H63.7383C63.3737 271.922 63.0612 271.798 62.8008 271.551C62.5534 271.29 62.4297 270.978 62.4297 270.613ZM87.332 271.922H79.6758C79.3112 271.909 79.0052 271.772 78.7578 271.512C78.5235 271.251 78.4063 270.939 78.4063 270.574C78.4714 269.793 78.8945 269.37 79.6758 269.305H86.668C87.1628 269.279 87.5729 269.09 87.8985 268.738C88.224 268.387 88.4583 267.99 88.6016 267.547C88.7578 267.091 88.836 266.629 88.836 266.16C88.836 265.691 88.7578 265.242 88.6016 264.812C88.4583 264.37 88.224 263.973 87.8985 263.621C87.5729 263.27 87.1628 263.081 86.668 263.055H81.4727C81.2253 263.042 81.0169 263.087 80.8477 263.191C80.6914 263.296 80.5742 263.419 80.4961 263.562C80.418 263.693 80.3789 263.829 80.3789 263.973C80.3789 264.064 80.418 264.194 80.4961 264.363C80.5742 264.52 80.6914 264.65 80.8477 264.754C81.0169 264.858 81.2253 264.917 81.4727 264.93H86.4727C86.8373 264.93 87.1432 265.06 87.3906 265.32C87.6511 265.568 87.7813 265.874 87.7813 266.238C87.7813 266.603 87.6576 266.915 87.4102 267.176C87.1498 267.423 86.8373 267.547 86.4727 267.547H81.5899C80.6784 267.521 79.9232 267.312 79.3242 266.922C78.7383 266.518 78.3151 266.062 78.0547 265.555C77.8073 265.034 77.6836 264.507 77.6836 263.973C77.6836 263.452 77.8138 262.938 78.0742 262.43C78.3347 261.909 78.7578 261.453 79.3438 261.062C79.9297 260.659 80.6784 260.457 81.5899 260.457H81.707C81.7852 260.444 81.8633 260.438 81.9414 260.438H87.332C88.2435 260.49 88.9922 260.841 89.5781 261.492C90.1771 262.13 90.6003 262.853 90.8477 263.66C91.1081 264.467 91.2383 265.301 91.2383 266.16C91.2383 267.02 91.1081 267.859 90.8477 268.68C90.5873 269.5 90.1641 270.236 89.5781 270.887C88.9922 271.525 88.2435 271.87 87.332 271.922ZM103.035 264.812C103.283 264.799 103.484 264.747 103.641 264.656C103.81 264.552 103.934 264.435 104.012 264.305C104.09 264.174 104.129 264.038 104.129 263.895C104.129 263.764 104.09 263.634 104.012 263.504C103.934 263.374 103.81 263.263 103.641 263.172C103.484 263.068 103.283 263.009 103.035 262.996H97.1758C96.9284 263.009 96.7201 263.068 96.5508 263.172C96.3945 263.263 96.2774 263.374 96.1992 263.504C96.1211 263.634 96.082 263.764 96.082 263.895C96.082 264.038 96.1211 264.174 96.1992 264.305C96.2774 264.435 96.3945 264.552 96.5508 264.656C96.7201 264.747 96.9284 264.799 97.1758 264.812C97.1888 264.812 97.2018 264.812 97.2149 264.812H102.996C103.009 264.812 103.022 264.812 103.035 264.812ZM103.113 269.305C103.361 269.292 103.563 269.233 103.719 269.129C103.888 269.025 104.012 268.908 104.09 268.777C104.168 268.647 104.207 268.51 104.207 268.367C104.207 268.224 104.168 268.087 104.09 267.957C104.012 267.827 103.888 267.71 103.719 267.605C103.563 267.501 103.361 267.443 103.113 267.43H97.0977C96.8503 267.443 96.6419 267.501 96.4727 267.605C96.3164 267.71 96.1992 267.827 96.1211 267.957C96.043 268.087 96.0039 268.224 96.0039 268.367C96.0039 268.51 96.043 268.647 96.1211 268.777C96.1992 268.908 96.3164 269.025 96.4727 269.129C96.6419 269.233 96.8503 269.292 97.0977 269.305H103.113ZM106.531 266.785C106.779 267.306 106.902 267.833 106.902 268.367C106.902 268.875 106.772 269.389 106.512 269.91C106.251 270.418 105.828 270.874 105.242 271.277C104.656 271.668 103.908 271.876 102.996 271.902C102.84 271.915 102.723 271.922 102.645 271.922H97.5664C97.4883 271.922 97.3711 271.915 97.2149 271.902C96.3034 271.876 95.5547 271.668 94.9688 271.277C94.3828 270.874 93.9597 270.418 93.6992 269.91C93.4388 269.389 93.3086 268.875 93.3086 268.367C93.3086 267.833 93.4388 267.306 93.6992 266.785C93.8294 266.525 94.0052 266.277 94.2266 266.043C94.0443 265.848 93.8945 265.633 93.7774 265.398C93.5169 264.904 93.3867 264.402 93.3867 263.895C93.3867 263.387 93.5104 262.879 93.7578 262.371C94.0182 261.863 94.4414 261.421 95.0274 261.043C95.6263 260.652 96.3815 260.451 97.293 260.438H102.918C103.829 260.451 104.578 260.652 105.164 261.043C105.763 261.421 106.186 261.863 106.434 262.371C106.694 262.879 106.824 263.387 106.824 263.895C106.824 264.402 106.694 264.904 106.434 265.398C106.316 265.633 106.167 265.848 105.984 266.043C106.206 266.277 106.388 266.525 106.531 266.785Z" fill="#FF0000"/>
<rect x="185" y="160" width="80" height="120" fill="black"/>
<rect x="188" y="164" width="74" height="56" fill="#585858"/>
<rect width="20" height="10" transform="matrix(0.875585 0.483063 0.483063 -0.875585 188.829 182.756)" fill="#FF00F5"/>
<rect width="20" height="10" transform="matrix(0.875585 0.483063 0.483063 -0.875585 220 188.547)" fill="#FF00F5"/>
<rect width="20" height="10" transform="matrix(0.976123 -0.217219 -0.217219 -0.976123 212.532 189.833)" fill="#00FFFF"/>
<rect width="20" height="10" transform="matrix(0.936804 0.349856 0.349856 -0.936804 232 185.211)" fill="#00FFFF"/>
<rect width="20" height="10" transform="matrix(0.976123 -0.217219 -0.217219 -0.976123 202.172 202.209)" fill="#05FF00"/>
<rect width="20" height="10" transform="matrix(0.897639 0.440732 0.440732 -0.897639 220 195.394)" fill="#00FFFF"/>
<rect width="20" height="10" transform="matrix(0.307435 0.951569 0.951569 -0.307435 188 181.177)" fill="#00FFFF"/>
<rect width="20" height="10" transform="matrix(0.976123 -0.217219 -0.217219 -0.976123 240.172 198.209)" fill="#05FF00"/>
<rect x="189" y="195" width="72" height="24" fill="#FFFF00" stroke="#FF0000" stroke-width="2"/>
<path d="M201.891 212.828V211.688C201.891 211.583 201.839 211.531 201.734 211.531H199.359C199.203 211.531 199.068 211.474 198.953 211.359C198.839 211.245 198.781 211.109 198.781 210.953C198.781 210.786 198.839 210.646 198.953 210.531C199.068 210.417 199.203 210.359 199.359 210.359H201.734C201.839 210.359 201.891 210.307 201.891 210.203V209.469C201.891 209.365 201.839 209.312 201.734 209.312H199.359C199.203 209.312 199.068 209.255 198.953 209.141C198.839 209.026 198.781 208.885 198.781 208.719C198.781 208.552 198.839 208.411 198.953 208.297C199.068 208.182 199.203 208.125 199.359 208.125H201.188C201.229 208.125 201.255 208.109 201.266 208.078C201.286 208.047 201.286 208.021 201.266 208L198.312 203.344C198.229 203.208 198.188 203.073 198.188 202.938C198.188 202.823 198.224 202.703 198.297 202.578C198.432 202.318 198.651 202.188 198.953 202.188H199C199.417 202.188 199.802 202.297 200.156 202.516C200.51 202.734 200.781 203.031 200.969 203.406L201.812 205.078C202.208 205.88 202.615 206.698 203.031 207.531C203.042 207.552 203.057 207.562 203.078 207.562C203.109 207.562 203.13 207.552 203.141 207.531C203.359 207.135 203.766 206.318 204.359 205.078L205.188 203.406C205.375 203.031 205.646 202.734 206 202.516C206.354 202.297 206.74 202.188 207.156 202.188C207.448 202.188 207.667 202.318 207.812 202.578C207.875 202.703 207.906 202.823 207.906 202.938C207.906 203.073 207.865 203.208 207.781 203.344L204.828 208C204.807 208.021 204.802 208.047 204.812 208.078C204.833 208.109 204.865 208.125 204.906 208.125H206.75C206.906 208.125 207.042 208.182 207.156 208.297C207.271 208.411 207.328 208.552 207.328 208.719C207.328 208.885 207.271 209.026 207.156 209.141C207.042 209.255 206.906 209.312 206.75 209.312H204.391C204.286 209.312 204.234 209.365 204.234 209.469V210.203C204.234 210.307 204.286 210.359 204.391 210.359H206.75C206.906 210.359 207.042 210.417 207.156 210.531C207.271 210.646 207.328 210.786 207.328 210.953C207.328 211.109 207.271 211.245 207.156 211.359C207.042 211.474 206.906 211.531 206.75 211.531H204.391C204.286 211.531 204.234 211.583 204.234 211.688V212.828C204.234 213.151 204.12 213.427 203.891 213.656C203.661 213.885 203.385 214 203.062 214C202.74 214 202.464 213.885 202.234 213.656C202.005 213.427 201.891 213.151 201.891 212.828ZM212.43 203.746C212.43 203.382 212.553 203.076 212.801 202.828C213.061 202.568 213.374 202.438 213.738 202.438H221.277C221.355 202.438 221.434 202.444 221.512 202.457H221.629C222.54 202.483 223.289 202.691 223.875 203.082C224.461 203.473 224.884 203.922 225.145 204.43C225.405 204.924 225.535 205.426 225.535 205.934C225.535 206.454 225.405 206.969 225.145 207.477C224.897 207.971 224.474 208.414 223.875 208.805C223.289 209.195 222.54 209.404 221.629 209.43H216.082C215.835 209.443 215.626 209.501 215.457 209.605C215.301 209.71 215.184 209.846 215.105 210.016C215.027 210.172 214.988 210.296 214.988 210.387V210.797C214.988 210.966 215.027 211.096 215.105 211.188C215.197 211.279 215.366 211.318 215.613 211.305H224.129C224.493 211.305 224.799 211.435 225.047 211.695C225.307 211.943 225.438 212.249 225.438 212.613C225.438 212.978 225.307 213.29 225.047 213.551C224.799 213.798 224.493 213.922 224.129 213.922H214.559C213.829 213.922 213.27 213.746 212.879 213.395C212.501 213.03 212.306 212.516 212.293 211.852V210.387C212.293 209.853 212.417 209.332 212.664 208.824C212.924 208.303 213.348 207.848 213.934 207.457C214.533 207.053 215.288 206.839 216.199 206.812H221.746C221.993 206.799 222.195 206.747 222.352 206.656C222.521 206.552 222.645 206.441 222.723 206.324C222.801 206.194 222.84 206.064 222.84 205.934C222.84 205.803 222.801 205.68 222.723 205.562C222.645 205.432 222.521 205.322 222.352 205.23C222.195 205.126 221.993 205.068 221.746 205.055H213.738C213.374 205.055 213.068 204.924 212.82 204.664C212.56 204.417 212.43 204.111 212.43 203.746ZM237.332 213.922H229.676C229.311 213.909 229.005 213.772 228.758 213.512C228.523 213.251 228.406 212.939 228.406 212.574C228.471 211.793 228.895 211.37 229.676 211.305H236.668C237.163 211.279 237.573 211.09 237.898 210.738C238.224 210.387 238.458 209.99 238.602 209.547C238.758 209.091 238.836 208.629 238.836 208.16C238.836 207.691 238.758 207.242 238.602 206.812C238.458 206.37 238.224 205.973 237.898 205.621C237.573 205.27 237.163 205.081 236.668 205.055H231.473C231.225 205.042 231.017 205.087 230.848 205.191C230.691 205.296 230.574 205.419 230.496 205.562C230.418 205.693 230.379 205.829 230.379 205.973C230.379 206.064 230.418 206.194 230.496 206.363C230.574 206.52 230.691 206.65 230.848 206.754C231.017 206.858 231.225 206.917 231.473 206.93H236.473C236.837 206.93 237.143 207.06 237.391 207.32C237.651 207.568 237.781 207.874 237.781 208.238C237.781 208.603 237.658 208.915 237.41 209.176C237.15 209.423 236.837 209.547 236.473 209.547H231.59C230.678 209.521 229.923 209.312 229.324 208.922C228.738 208.518 228.315 208.062 228.055 207.555C227.807 207.034 227.684 206.507 227.684 205.973C227.684 205.452 227.814 204.938 228.074 204.43C228.335 203.909 228.758 203.453 229.344 203.062C229.93 202.659 230.678 202.457 231.59 202.457H231.707C231.785 202.444 231.863 202.438 231.941 202.438H237.332C238.243 202.49 238.992 202.841 239.578 203.492C240.177 204.13 240.6 204.853 240.848 205.66C241.108 206.467 241.238 207.301 241.238 208.16C241.238 209.02 241.108 209.859 240.848 210.68C240.587 211.5 240.164 212.236 239.578 212.887C238.992 213.525 238.243 213.87 237.332 213.922ZM253.035 206.812C253.283 206.799 253.484 206.747 253.641 206.656C253.81 206.552 253.934 206.435 254.012 206.305C254.09 206.174 254.129 206.038 254.129 205.895C254.129 205.764 254.09 205.634 254.012 205.504C253.934 205.374 253.81 205.263 253.641 205.172C253.484 205.068 253.283 205.009 253.035 204.996H247.176C246.928 205.009 246.72 205.068 246.551 205.172C246.395 205.263 246.277 205.374 246.199 205.504C246.121 205.634 246.082 205.764 246.082 205.895C246.082 206.038 246.121 206.174 246.199 206.305C246.277 206.435 246.395 206.552 246.551 206.656C246.72 206.747 246.928 206.799 247.176 206.812C247.189 206.812 247.202 206.812 247.215 206.812H252.996C253.009 206.812 253.022 206.812 253.035 206.812ZM253.113 211.305C253.361 211.292 253.562 211.233 253.719 211.129C253.888 211.025 254.012 210.908 254.09 210.777C254.168 210.647 254.207 210.51 254.207 210.367C254.207 210.224 254.168 210.087 254.09 209.957C254.012 209.827 253.888 209.71 253.719 209.605C253.562 209.501 253.361 209.443 253.113 209.43H247.098C246.85 209.443 246.642 209.501 246.473 209.605C246.316 209.71 246.199 209.827 246.121 209.957C246.043 210.087 246.004 210.224 246.004 210.367C246.004 210.51 246.043 210.647 246.121 210.777C246.199 210.908 246.316 211.025 246.473 211.129C246.642 211.233 246.85 211.292 247.098 211.305H253.113ZM256.531 208.785C256.779 209.306 256.902 209.833 256.902 210.367C256.902 210.875 256.772 211.389 256.512 211.91C256.251 212.418 255.828 212.874 255.242 213.277C254.656 213.668 253.908 213.876 252.996 213.902C252.84 213.915 252.723 213.922 252.645 213.922H247.566C247.488 213.922 247.371 213.915 247.215 213.902C246.303 213.876 245.555 213.668 244.969 213.277C244.383 212.874 243.96 212.418 243.699 211.91C243.439 211.389 243.309 210.875 243.309 210.367C243.309 209.833 243.439 209.306 243.699 208.785C243.829 208.525 244.005 208.277 244.227 208.043C244.044 207.848 243.895 207.633 243.777 207.398C243.517 206.904 243.387 206.402 243.387 205.895C243.387 205.387 243.51 204.879 243.758 204.371C244.018 203.863 244.441 203.421 245.027 203.043C245.626 202.652 246.382 202.451 247.293 202.438H252.918C253.829 202.451 254.578 202.652 255.164 203.043C255.763 203.421 256.186 203.863 256.434 204.371C256.694 204.879 256.824 205.387 256.824 205.895C256.824 206.402 256.694 206.904 256.434 207.398C256.316 207.633 256.167 207.848 255.984 208.043C256.206 208.277 256.388 208.525 256.531 208.785Z" fill="#FF0000"/>
<rect x="188" y="224" width="74" height="54" fill="#585858"/>
<rect x="193.829" y="252.453" width="20" height="10" transform="rotate(-28.8857 193.829 252.453)" fill="#FF00F5"/>
<rect x="225" y="246.661" width="20" height="10" transform="rotate(-28.8857 225 246.661)" fill="#FF00F5"/>
<rect x="217.532" y="245.375" width="20" height="10" transform="rotate(12.5458 217.532 245.375)" fill="#00FFFF"/>
<rect x="237" y="249.997" width="20" height="10" transform="rotate(-20.4785 237 249.997)" fill="#00FFFF"/>
<rect x="207.172" y="233" width="20" height="10" transform="rotate(12.5458 207.172 233)" fill="#05FF00"/>
<rect x="225" y="239.815" width="20" height="10" transform="rotate(-26.1506 225 239.815)" fill="#00FFFF"/>
<rect x="193" y="254.031" width="20" height="10" transform="rotate(-72.0953 193 254.031)" fill="#00FFFF"/>
<rect x="189" y="253" width="72" height="24" fill="#FFFF00" stroke="#FF0000" stroke-width="2"/>
<path d="M207.203 270.828V269.688C207.203 269.583 207.151 269.531 207.047 269.531H204.672C204.516 269.531 204.38 269.474 204.266 269.359C204.151 269.245 204.094 269.109 204.094 268.953C204.094 268.786 204.151 268.646 204.266 268.531C204.38 268.417 204.516 268.359 204.672 268.359H207.047C207.151 268.359 207.203 268.307 207.203 268.203V267.469C207.203 267.365 207.151 267.312 207.047 267.312H204.672C204.516 267.312 204.38 267.255 204.266 267.141C204.151 267.026 204.094 266.885 204.094 266.719C204.094 266.552 204.151 266.411 204.266 266.297C204.38 266.182 204.516 266.125 204.672 266.125H206.5C206.542 266.125 206.568 266.109 206.578 266.078C206.599 266.047 206.599 266.021 206.578 266L203.625 261.344C203.542 261.208 203.5 261.073 203.5 260.938C203.5 260.823 203.536 260.703 203.609 260.578C203.745 260.318 203.964 260.188 204.266 260.188H204.312C204.729 260.188 205.115 260.297 205.469 260.516C205.823 260.734 206.094 261.031 206.281 261.406L207.125 263.078C207.521 263.88 207.927 264.698 208.344 265.531C208.354 265.552 208.37 265.562 208.391 265.562C208.422 265.562 208.443 265.552 208.453 265.531C208.672 265.135 209.078 264.318 209.672 263.078L210.5 261.406C210.688 261.031 210.958 260.734 211.312 260.516C211.667 260.297 212.052 260.188 212.469 260.188C212.76 260.188 212.979 260.318 213.125 260.578C213.188 260.703 213.219 260.823 213.219 260.938C213.219 261.073 213.177 261.208 213.094 261.344L210.141 266C210.12 266.021 210.115 266.047 210.125 266.078C210.146 266.109 210.177 266.125 210.219 266.125H212.062C212.219 266.125 212.354 266.182 212.469 266.297C212.583 266.411 212.641 266.552 212.641 266.719C212.641 266.885 212.583 267.026 212.469 267.141C212.354 267.255 212.219 267.312 212.062 267.312H209.703C209.599 267.312 209.547 267.365 209.547 267.469V268.203C209.547 268.307 209.599 268.359 209.703 268.359H212.062C212.219 268.359 212.354 268.417 212.469 268.531C212.583 268.646 212.641 268.786 212.641 268.953C212.641 269.109 212.583 269.245 212.469 269.359C212.354 269.474 212.219 269.531 212.062 269.531H209.703C209.599 269.531 209.547 269.583 209.547 269.688V270.828C209.547 271.151 209.432 271.427 209.203 271.656C208.974 271.885 208.698 272 208.375 272C208.052 272 207.776 271.885 207.547 271.656C207.318 271.427 207.203 271.151 207.203 270.828ZM231.355 260.438H239.012C239.376 260.451 239.676 260.587 239.91 260.848C240.158 261.108 240.281 261.421 240.281 261.785C240.216 262.566 239.793 262.99 239.012 263.055H232.02C231.525 263.081 231.115 263.27 230.789 263.621C230.464 263.973 230.223 264.376 230.066 264.832C229.923 265.275 229.852 265.73 229.852 266.199C229.852 266.668 229.923 267.124 230.066 267.566C230.223 267.996 230.464 268.387 230.789 268.738C231.115 269.09 231.525 269.279 232.02 269.305H237.215C237.462 269.318 237.664 269.272 237.82 269.168C237.99 269.064 238.113 268.947 238.191 268.816C238.27 268.673 238.309 268.53 238.309 268.387C238.309 268.296 238.27 268.172 238.191 268.016C238.113 267.846 237.99 267.71 237.82 267.605C237.664 267.501 237.462 267.443 237.215 267.43H232.215C231.85 267.43 231.538 267.306 231.277 267.059C231.03 266.798 230.906 266.486 230.906 266.121C230.906 265.757 231.03 265.444 231.277 265.184C231.538 264.936 231.85 264.812 232.215 264.812H237.098C238.009 264.839 238.758 265.053 239.344 265.457C239.943 265.848 240.366 266.303 240.613 266.824C240.874 267.332 241.004 267.853 241.004 268.387C241.004 268.908 240.874 269.428 240.613 269.949C240.353 270.457 239.93 270.913 239.344 271.316C238.758 271.707 238.022 271.909 237.137 271.922H231.355C230.444 271.87 229.689 271.525 229.09 270.887C228.504 270.236 228.081 269.507 227.82 268.699C227.573 267.892 227.449 267.059 227.449 266.199C227.449 265.34 227.579 264.5 227.84 263.68C228.1 262.859 228.523 262.13 229.109 261.492C229.695 260.841 230.444 260.49 231.355 260.438ZM252.898 260.125C253.25 260.138 253.549 260.268 253.797 260.516C254.044 260.75 254.174 261.043 254.188 261.395V266.453H255.301C255.665 266.466 255.965 266.603 256.199 266.863C256.447 267.124 256.57 267.436 256.57 267.801C256.557 268.152 256.427 268.452 256.18 268.699C255.945 268.934 255.652 269.057 255.301 269.07H254.188V270.965C254.109 271.746 253.68 272.169 252.898 272.234C252.534 272.234 252.215 272.117 251.941 271.883C251.681 271.635 251.551 271.329 251.551 270.965V269.07H247.41C246.499 269.018 245.743 268.712 245.145 268.152C244.559 267.579 244.135 266.883 243.875 266.062C243.628 265.242 243.497 264.37 243.484 263.445V261.395C243.497 261.043 243.628 260.75 243.875 260.516C244.122 260.268 244.422 260.138 244.773 260.125C245.138 260.125 245.451 260.249 245.711 260.496C245.971 260.73 246.108 261.03 246.121 261.395V263.211C246.108 263.745 246.141 264.24 246.219 264.695C246.31 265.138 246.518 265.535 246.844 265.887C247.169 266.238 247.579 266.427 248.074 266.453H251.551V261.395C251.564 261.03 251.701 260.73 251.961 260.496C252.221 260.249 252.534 260.125 252.898 260.125Z" fill="#FF0000"/>
</g>
<defs>
<clipPath id="clip0_106_328">
<rect width="300" height="300" fill="white"/>
</clipPath>
</defs>
</svg>
