<svg width="100" height="100" viewBox="0 0 100 100" fill="none" xmlns="http://www.w3.org/2000/svg">
<g clip-path="url(#clip0_109_702)">
<rect y="50" width="5" height="50" fill="#FFF200"/>
<rect width="100" height="50" fill="#FFF200"/>
<path d="M0 0H20L0 22.5V0Z" fill="black"/>
<path d="M100 50H80L100 27.5V50Z" fill="black"/>
<path d="M45 0H60L15 50H0L45 0Z" fill="black"/>
<path d="M87 0H102L57 50H42L87 0Z" fill="black"/>
<rect x="95" y="50" width="5" height="50" fill="#FFF200"/>
<path d="M10.912 14.644H33.2V16.828H10.912V14.644ZM9.428 33.012H34.6V35.112H9.428V33.012ZM20.74 15.736H23.092V33.88H20.74V15.736ZM48.824 11.48H50.952V34.888C50.952 36.204 50.588 36.708 49.72 37.016C48.824 37.296 47.368 37.324 45.016 37.324C44.904 36.82 44.568 36.036 44.288 35.56C45.968 35.616 47.648 35.588 48.152 35.588C48.656 35.56 48.824 35.392 48.824 34.888V11.48ZM37.876 13.72H62.18V15.456H37.876V13.72ZM42.804 18.592V20.608H57.252V18.592H42.804ZM40.816 17.136H59.38V22.092H40.816V17.136ZM40.004 24.052H59.8V34.244H57.7V25.62H40.004V24.052ZM37.344 27.552H62.712V29.232H37.344V27.552ZM39.724 31.36H58.792V32.984H39.724V31.36ZM66.688 16.492H89.256V29.68H87.072V18.564H68.788V29.82H66.688V16.492ZM67.808 26.012H88.332V28.056H67.808V26.012ZM76.824 11.48H79.008V37.212H76.824V11.48Z" fill="#FF0000"/>
</g>
<defs>
<clipPath id="clip0_109_702">
<rect width="100" height="100" fill="white"/>
</clipPath>
</defs>
</svg>
