<svg width="300" height="150" viewBox="0 0 300 150" fill="none" xmlns="http://www.w3.org/2000/svg">
<g clip-path="url(#clip0_109_765)">
<path d="M32.8 114V70H69C81.1503 70 91 79.8497 91 92V92C91 104.15 81.1503 114 69 114H32.8Z" fill="#FFFACD"/>
<path d="M8.87333 114L21.8067 109.16L4.34667 106.96L15.9867 102.56L-3.41333 99.92L15.9867 96.4L-6 92L15.9867 87.6L-3.41333 84.96L15.9867 82.32L4.34667 77.92L21.8067 74.4L8.87333 70H32.8V114H8.87333Z" fill="black"/>
<path d="M48 93C48 93 49.3633 91.8065 49.3922 88.3046C49.4164 85.3694 48.5 85 48.5 85" stroke="black" stroke-width="2" stroke-linecap="round"/>
<path d="M48.4393 76C48.4393 76 49 75 48.4393 72C48.1061 70.2175 47.5 70 47.5 70" stroke="black" stroke-width="2" stroke-linecap="round"/>
<path d="M54 81L65.64 81" stroke="black"/>
<path d="M76 92.5V77.54" stroke="black" stroke-width="2"/>
<path d="M98.5 80C108.193 47.5 147.473 57.0177 176.5 38C205.5 19 246.356 23.6734 270 50C296.094 79.0551 309.052 150 270 150C220 150 237.5 150 130 150C90.9476 150 86.8471 119.071 98.5 80Z" fill="white"/>
<path d="M110.103 70.6876C118.745 41.7568 153.766 50.2293 179.646 33.3002C205.501 16.3868 241.928 20.5469 263.008 43.9823C286.272 69.8465 297.826 133 263.008 133C218.429 133 234.032 133 138.188 133C103.369 133 99.7136 105.468 110.103 70.6876Z" fill="#0ED145"/>
<path d="M23.5437 124.46C33.3978 112.34 55.0304 111.363 63.5437 124.46C69.0773 132.974 73.6973 150.46 63.5437 150.46C47.5437 150.46 42.0436 150.46 23.5437 150.46C17.8508 150.46 17.8864 142.651 18.0437 136.96C18.191 131.629 20.1793 128.598 23.5437 124.46Z" fill="white"/>
<path d="M78.5216 92.9853C79.5403 96.4276 79.3159 101.765 78.5216 102C77.7272 102.235 78.5241 100.192 77.5053 96.7495C76.4866 93.3072 75.7099 92.0858 76.5043 91.8508C77.2986 91.6157 78.2181 91.5005 78.5216 92.9853Z" fill="#8CFFFB"/>
<path d="M160 74C160 74 154.5 79 153 85C151.215 92.1408 149.5 67.4999 149.5 67.4999C149.5 67.4999 139.5 93.1777 139.5 85C139.5 74.4999 141.537 55.3303 141.537 55.3303" stroke="#00712D" stroke-width="3"/>
<path d="M260.103 73.1475C260.103 73.1475 255.045 77.428 253.592 82.4839C251.863 88.5011 250.701 67.8623 250.701 67.8623C250.701 67.8623 241.241 89.5563 241.371 82.6978C241.537 73.8916 243.685 57.7821 243.685 57.7821" stroke="#00712D" stroke-width="3"/>
<path d="M183.248 106.224C183.248 106.224 180.308 108.829 179.491 111.938C178.519 115.638 177.69 102.897 177.69 102.897C177.69 102.897 172.29 116.213 172.318 111.983C172.353 106.552 173.499 96.6289 173.499 96.6289" stroke="#00712D" stroke-width="3"/>
<path d="M238.28 108.072C238.28 108.072 231.852 113.341 229.966 119.517C227.721 126.867 226.468 101.729 226.468 101.729C226.468 101.729 214.304 128.263 214.538 119.904C214.84 109.171 217.717 89.5179 217.717 89.5179" stroke="#00712D" stroke-width="3"/>
<path d="M209.614 52.0112C209.614 52.0112 205.994 55.2517 204.995 59.1274C203.806 63.7401 202.743 47.8429 202.743 47.8429C202.743 47.8429 196.12 64.4387 196.14 59.1614C196.167 52.3854 197.551 40.0095 197.551 40.0095" stroke="#00712D" stroke-width="3"/>
</g>
<defs>
<clipPath id="clip0_109_765">
<rect width="300" height="150" fill="white"/>
</clipPath>
</defs>
</svg>
