<svg width="100" height="300" viewBox="0 0 100 300" fill="none" xmlns="http://www.w3.org/2000/svg">
<path d="M28 39H72V73C72 85.1503 62.1503 95 50 95V95C37.8497 95 28 85.1503 28 73V39Z" fill="#FFFACD"/>
<line x1="53.6118" y1="50.4687" x2="71.9644" y2="45.5511" stroke="black" stroke-width="3"/>
<line y1="-1.5" x2="19" y2="-1.5" transform="matrix(-0.965926 -0.258819 -0.258819 0.965926 47.3526 51.9176)" stroke="black" stroke-width="3"/>
<circle cx="41" cy="57" r="4" fill="black"/>
<circle cx="59" cy="57" r="4" fill="black"/>
<rect x="28" y="20" width="72" height="20" fill="black"/>
<path d="M40 82L50.5 80L60 82" stroke="black" stroke-width="2"/>
<line x1="50.5" y1="65" x2="50.5" y2="75" stroke="black"/>
<rect x="5" y="106" width="90" height="160" fill="black"/>
<path d="M15 252H85L95 266H5L15 252Z" fill="#808080"/>
<rect x="30" y="96" width="40" height="10" fill="black"/>
<rect x="17" y="252" width="28" height="42" fill="black"/>
<rect x="21" y="294" width="19.6364" height="6" fill="white"/>
<rect x="55" y="252" width="28" height="42" fill="black"/>
<rect x="59" y="294" width="20" height="6" fill="white"/>
<rect x="80" y="106" width="20" height="80" fill="black"/>
<rect x="1" y="186" width="18" height="18" fill="#FFFACD"/>
<rect y="106" width="20" height="80" fill="black"/>
<rect x="80" y="186" width="18" height="18" fill="#FFFACD"/>
</svg>
