<svg width="87" height="68" viewBox="0 0 87 68" fill="none" xmlns="http://www.w3.org/2000/svg">
<rect x="15.9999" y="38.7808" width="45" height="6" fill="#AAAAAA"/>
<path d="M22.1208 22.2581L57.3501 23.9468L57.3501 28.4501L21.8871 27.8823L22.1208 22.2581Z" fill="#AAAAAA"/>
<circle cx="16.4999" cy="42.2808" r="11.5" fill="#D9D9D9"/>
<g filter="url(#filter0_f_100_313)">
<ellipse cx="12.9999" cy="39.2808" rx="6" ry="5.5" fill="white"/>
</g>
<circle cx="60.9532" cy="26.4242" r="10.1323" transform="rotate(12.2154 60.9532 26.4242)" fill="#D9D9D9"/>
<g filter="url(#filter1_f_100_313)">
<circle cx="57.638" cy="21.9832" r="4.50324" transform="rotate(12.2154 57.638 21.9832)" fill="white"/>
</g>
<g filter="url(#filter2_f_100_313)">
<ellipse cx="61.4999" cy="26.7808" rx="5.5" ry="6" fill="black"/>
</g>
<circle cx="61.4999" cy="42.2808" r="11.5" fill="#D9D9D9"/>
<g filter="url(#filter3_f_100_313)">
<ellipse cx="59" cy="38.2808" rx="6" ry="5.5" fill="white"/>
</g>
<circle cx="19.5109" cy="24.3852" r="11.2581" transform="rotate(12.2154 19.5109 24.3852)" fill="#D9D9D9"/>
<g filter="url(#filter4_f_100_313)">
<circle cx="16.9246" cy="20.3697" r="5.62905" transform="rotate(12.2154 16.9246 20.3697)" fill="white"/>
</g>
<defs>
<filter id="filter0_f_100_313" x="2.99988" y="29.7808" width="20" height="19" filterUnits="userSpaceOnUse" color-interpolation-filters="sRGB">
<feFlood flood-opacity="0" result="BackgroundImageFix"/>
<feBlend mode="normal" in="SourceGraphic" in2="BackgroundImageFix" result="shape"/>
<feGaussianBlur stdDeviation="2" result="effect1_foregroundBlur_100_313"/>
</filter>
<filter id="filter1_f_100_313" x="49.1338" y="13.479" width="17.0084" height="17.0084" filterUnits="userSpaceOnUse" color-interpolation-filters="sRGB">
<feFlood flood-opacity="0" result="BackgroundImageFix"/>
<feBlend mode="normal" in="SourceGraphic" in2="BackgroundImageFix" result="shape"/>
<feGaussianBlur stdDeviation="2" result="effect1_foregroundBlur_100_313"/>
</filter>
<filter id="filter2_f_100_313" x="35.9999" y="0.780762" width="51" height="52" filterUnits="userSpaceOnUse" color-interpolation-filters="sRGB">
<feFlood flood-opacity="0" result="BackgroundImageFix"/>
<feBlend mode="normal" in="SourceGraphic" in2="BackgroundImageFix" result="shape"/>
<feGaussianBlur stdDeviation="10" result="effect1_foregroundBlur_100_313"/>
</filter>
<filter id="filter3_f_100_313" x="49" y="28.7808" width="20" height="19" filterUnits="userSpaceOnUse" color-interpolation-filters="sRGB">
<feFlood flood-opacity="0" result="BackgroundImageFix"/>
<feBlend mode="normal" in="SourceGraphic" in2="BackgroundImageFix" result="shape"/>
<feGaussianBlur stdDeviation="2" result="effect1_foregroundBlur_100_313"/>
</filter>
<filter id="filter4_f_100_313" x="7.29431" y="10.7395" width="19.2605" height="19.2604" filterUnits="userSpaceOnUse" color-interpolation-filters="sRGB">
<feFlood flood-opacity="0" result="BackgroundImageFix"/>
<feBlend mode="normal" in="SourceGraphic" in2="BackgroundImageFix" result="shape"/>
<feGaussianBlur stdDeviation="2" result="effect1_foregroundBlur_100_313"/>
</filter>
</defs>
</svg>
