<svg width="89" height="97" viewBox="0 0 89 97" fill="none" xmlns="http://www.w3.org/2000/svg">
<rect x="40.7981" y="68.2372" width="31" height="7" transform="rotate(-40 40.7981 68.2372)" fill="#D30000"/>
<rect x="54.4901" y="65.8861" width="8" height="30" transform="rotate(-40 54.4901 65.8861)" fill="#D30000"/>
<path d="M15.6763 22.7411L12.5592 9.69186L24.8689 15.0277L57.651 54.0959L48.4585 61.8094L15.6763 22.7411Z" fill="#D9D9D9"/>
<path d="M18.9871 17.3523L51.7692 56.4206" stroke="#B3B3B3"/>
<rect width="31" height="7" transform="matrix(-0.766044 -0.642788 -0.642788 0.766044 47.8328 68.2372)" fill="#D30000"/>
<rect width="8" height="30" transform="matrix(-0.766044 -0.642788 -0.642788 0.766044 34.1407 65.8861)" fill="#D30000"/>
<path d="M72.9545 22.7411L76.0717 9.69186L63.762 15.0277L30.9798 54.0959L40.1724 61.8094L72.9545 22.7411Z" fill="#D9D9D9"/>
<path d="M69.6438 17.3523L36.8616 56.4206" stroke="#B3B3B3"/>
</svg>
