<svg width="600" height="420" viewBox="0 0 600 420" fill="none" xmlns="http://www.w3.org/2000/svg">
<g clip-path="url(#clip0_49_78)">
<rect width="600" height="420" fill="white"/>
<rect y="170" width="600" height="250" fill="#98FB98"/>
<rect width="600" height="170" fill="#C5FFF4"/>
<circle cx="52" cy="37" r="75" fill="#FEEF68"/>
<path d="M9.28276 163.247L74.7586 146L138.938 163.247L172 227.123L138.938 291H9.28276L-16 227.123L9.28276 163.247Z" fill="#D9D9D9"/>
<path d="M117.495 191.928L110.5 215.5L110.5 238.5L127.495 260.928" stroke="black"/>
<path d="M30 208.319L41.9336 200.108L50.4504 189.57L50.9684 173" stroke="black"/>
<path d="M483.131 125.322L543.034 112L601.752 125.322L632 174.661L601.752 224H483.131L460 174.661L483.131 125.322Z" fill="#D9D9D9"/>
<path d="M516.411 208.309L515.942 193.831L511.668 180.973L498 171.592" stroke="black"/>
<path d="M591.866 148L588.417 162.068L589.067 175.603L599.701 188.32" stroke="black"/>
<path d="M365.572 221.022L377.414 219L389.021 221.022L395 228.511L389.021 236H365.572L361 228.511L365.572 221.022Z" fill="#D9D9D9"/>
<path d="M366.03 229.326L369.388 229.399L371.976 228.324L372.784 224.417" stroke="black"/>
<path d="M-2.01379 380.564L34.2069 372L69.7103 380.564L88 412.282L69.7103 444H-2.01379L-16 412.282L-2.01379 380.564Z" fill="#D9D9D9"/>
<path d="M45.8602 411.958L41.0119 405.755L35.0118 401.531L26 401.964" stroke="black"/>
<path d="M468.607 323.044L490.897 319L512.745 323.044L524 338.022L512.745 353H468.607L460 338.022L468.607 323.044Z" fill="#D9D9D9"/>
<path d="M498.508 324.542L502.324 331.428L507.587 336.541L516.555 337.527" stroke="black"/>
</g>
<defs>
<clipPath id="clip0_49_78">
<rect width="600" height="420" fill="white"/>
</clipPath>
</defs>
</svg>
