<svg width="600" height="420" viewBox="0 0 600 420" fill="none" xmlns="http://www.w3.org/2000/svg">
<g clip-path="url(#clip0_49_49)">
<rect width="600" height="420" fill="white"/>
<rect width="600" height="420" fill="#14FF00"/>
<rect x="-37.5" y="265" width="195" height="95" fill="#8B4513"/>
<path d="M60 160L185 265H-65L60 160Z" fill="#FFA41D"/>
<rect x="410.661" y="69.3572" width="47.3214" height="94.6428" fill="#8B4513"/>
<path d="M434.321 -101L481.643 69.3571H387L434.321 -101Z" fill="#008000"/>
<rect x="456" y="138.75" width="156" height="71.25" fill="#8B4513"/>
<path d="M534 60L634 138.75H434L534 60Z" fill="#FFA41D"/>
<rect x="540.25" y="257" width="62.5" height="125" fill="#8B4513"/>
<path d="M571.5 32L634 257H509L571.5 32Z" fill="#008000"/>
<rect x="-4.00003" y="389" width="80" height="125" fill="#8B4513"/>
<path d="M36 164L116 389H-44L36 164Z" fill="#008000"/>
<rect x="103.4" y="63.0001" width="109.2" height="57" fill="#8B4513"/>
<path d="M158 0L228 63H88L158 0Z" fill="#FFA41D"/>
<rect x="193" y="141.429" width="40" height="78.5714" fill="#8B4513"/>
<path d="M213 0L253 141.429H173L213 0Z" fill="#008000"/>
<rect x="11" y="36.5714" width="30" height="71.4286" fill="#8B4513"/>
<path d="M26 -92L56 36.5714H-4L26 -92Z" fill="#008000"/>
</g>
<defs>
<clipPath id="clip0_49_49">
<rect width="600" height="420" fill="white"/>
</clipPath>
</defs>
</svg>
