<svg width="600" height="420" viewBox="0 0 600 420" fill="none" xmlns="http://www.w3.org/2000/svg" preserveAspectRatio="none">
<rect width="600" height="420" fill="white"/>
<rect width="600" height="420" fill="#0000FF"/>
<path d="M563 95.3702L576.5 128.221L592 150.938L596 205.107L584.5 250.19L563 277.1L584.5 335.813L580 378.799L538 407.107L461.5 412L364 403.962L335 391.381L314 381.595L291 385.09L264 398.72L221.5 394.875L145 370L60 290L42 268L48 235L61.5 212.446L68.5 176.5L61.5 163L42 150.938L19.5 122.63L3 79.9931L15.5 31.4152L61.5 8H133L189.5 36.308L260 55.1799L328 41.2007L401 46.0934L455 41.2007L520 69.1592L563 95.3702Z" fill="#FFE4C4"/>
<path d="M186.5 33.0813L260.103 64.2755L314.5 52.0081L408.801 44.2972H456.801L538.301 82.8519L563.5 96L569 125.612L585 187.65L578.5 223.401L563 276.677L578.5 334.509L569 376.919L531 399H483H417L349.5 389.887L299.5 369.208L260.103 350.281L237.5 328.55L207 295.954L155.5 276.677L97.5 266.863L68.5 250.389V223.401L78 164.518L28 111.242L16 74.0894L28 33.0813L61.5 17.3089L97.5 11L186.5 33.0813Z" fill="#14FF00"/>
<path d="M264 192.556L353.5 167.62L418.5 176.751L484.5 203L508 245L501 286.332L449.5 306H377L314 297.922L238.5 286.332L205.5 262.5L198.5 235L220 209L264 192.556Z" fill="#10C700"/>
<path d="M373 74.522L437 53.5L508 74.522L551.5 105.641L563 138.142L544 162H495.5L422 155.085L372 136.5L359.5 109L373 74.522Z" fill="#10C700"/>
<path d="M410 81L423.833 72.8279L449.236 70L478.924 76.0093L499.346 88.3814L509.008 99.693L511 113.479L503.331 125.144L486.395 142.112L458.502 146L436.087 142.112L414.171 128.326L403 121L396.437 107.5L400 91L410 81Z" fill="#008000"/>
<path d="M25.7676 31.7087L60 12.8011L97.5 10L134 19.5L157.5 40L168 69V93.5L161.5 118.5L153.5 130.5L137 135L97.5 127.997H60L25.7676 111.19L15 74.7759L25.7676 31.7087Z" fill="#DD7BFF"/>
<path d="M35.5184 47.6259L58.5953 28.9784L75.5 20H99.2308L120 26.5L134 39.5L145 62V86L148 102L141 115L127 119.5L114 115H95.5L72.5 119.5L58.5953 117L48 110.5L38.0268 104.95L30 89.7554V74.5611L35.5184 47.6259Z" fill="#7700A0"/>
</svg>
